<?xml version="1.0" encoding="UTF-8"?>
<svg id="Layer_1" data-name="Layer 1" xmlns="http://www.w3.org/2000/svg" viewBox="0 0 500 500">
  <defs>
    <style>
      .cls-1 {
        fill: #050505;
      }

      .cls-2 {
        fill: #010101;
      }

      .cls-3 {
        fill: #eb3725;
      }

      .cls-4 {
        fill: #0097ac;
      }

      .cls-5 {
        fill: #f9f9f8;
      }

      .cls-6 {
        fill: #1fb04b;
      }

      .cls-7 {
        fill: #ece3bf;
      }

      .cls-8 {
        fill: #016836;
      }

      .cls-9 {
        fill: #6bccf3;
      }

      .cls-10 {
        fill: #b2d235;
      }

      .cls-11 {
        fill: #231f20;
      }

      .cls-12 {
        fill: #adafb0;
      }

      .cls-13 {
        fill: #ffc906;
      }

      .cls-14 {
        fill: #100f0e;
      }

      .cls-15 {
        fill: #d3d5d6;
      }

      .cls-16 {
        fill: #6dbd46;
      }

      .cls-17 {
        fill: #e4cc9d;
      }

      .cls-18 {
        fill: #fff;
      }

      .cls-19 {
        fill: #404041;
      }

      .cls-20 {
        fill: #7a7c7d;
      }

      .cls-21 {
        fill: #221f1f;
      }

      .cls-22 {
        fill: #f5f0ee;
      }

      .cls-23 {
        fill: #24b24b;
      }

      .cls-24 {
        fill: #045260;
      }

      .cls-25 {
        fill: #e9e9eb;
      }

      .cls-26 {
        fill: #060707;
      }
    </style>
  </defs>
  <path class="cls-19" d="M354.58,73.5h-225.16v-5.98c0-4.21,3.42-7.63,7.63-7.63h209.9c4.21,0,7.63,3.42,7.63,7.63v5.98Z"/>
  <path class="cls-2" d="M354.58,73.5v-1.91h-223.26v-4.07c0-3.16,2.56-5.72,5.72-5.72h209.9c3.16,0,5.72,2.56,5.72,5.72v5.98h1.91v-1.91,1.91h1.91v-5.98c0-5.27-4.27-9.53-9.54-9.54h-209.9c-5.27,0-9.54,4.27-9.54,9.54v7.89h228.98v-1.91h-1.91Z"/>
  <path class="cls-19" d="M363.06,80.95H120.86v-5.98c0-4.21,3.42-7.63,7.63-7.63h226.94c4.21,0,7.63,3.42,7.63,7.63v5.98Z"/>
  <path class="cls-2" d="M363.06,80.95v-1.91H122.77v-4.07c0-3.16,2.56-5.72,5.72-5.72h226.94c3.16,0,5.72,2.56,5.72,5.72v5.98h1.91v-1.91,1.91h1.91v-5.98c0-5.27-4.27-9.54-9.54-9.54h-226.94c-5.27,0-9.54,4.27-9.54,9.54v7.89h246.02v-1.91h-1.91Z"/>
  <path class="cls-19" d="M344.64,134.34l-202.05-1.12-21.46-50.53c-.98-2.32.86-4.82,3.55-4.82h234.57c2.59,0,4.43,2.34,3.63,4.62l-18.24,51.85Z"/>
  <path class="cls-2" d="M344.64,134.34v-1.91s-200.78-1.11-200.78-1.11l-20.97-49.38-.12-.55c0-.73.7-1.62,1.91-1.62h234.57c.6,0,1.08.22,1.41.54.33.32.5.71.5,1.08l-.08.46-18.24,51.85,1.8.63v-1.91s0,1.91,0,1.91l1.8.63,18.24-51.85c.2-.57.3-1.16.3-1.73-.02-3.02-2.58-5.43-5.72-5.43H124.68c-3.17,0-5.71,2.43-5.73,5.43,0,.68.14,1.38.42,2.04l21.95,51.69,204.66,1.13.45-1.28-1.8-.63Z"/>
  <polyline class="cls-2" points="135.85 78.57 147.07 106.79 150.61 105.38 139.39 77.16"/>
  <polyline class="cls-2" points="345.1 77.16 333.88 105.38 337.42 106.79 348.64 78.57"/>
  <path class="cls-23" d="M362.17,150.52H120.48c-.4,0-.53-.73-.18-.99l22.42-16.83,204.09,1.43,15.59,15.44c.3.3.15.95-.22.95Z"/>
  <path class="cls-11" d="M362.17,150.52v-1.91H120.48v1.55l1.31-.87c-.15-.27-.68-.7-1.31-.69v1.55l1.31-.87-1.04.69h1.25l-.22-.69-1.04.69h1.25-1.36l.8,1.07c.49-.39.56-.82.56-1.07h-1.36l.8,1.07,21.91-16.44,202.67,1.42,15.04,14.89.92-.93h-1.33c0,.23.06.58.41.93l.92-.93h-1.33,1.26l-1.04-.7-.22.7h1.26l-1.04-.7,1.3.87v-1.55c-.63,0-1.15.41-1.3.68l1.3.87v-1.55,3.81c.87,0,1.58-.54,1.87-1.01.32-.48.42-.94.43-1.43,0-.54-.16-1.21-.73-1.78l-16.14-15.98-205.51-1.44-22.94,17.21c-.77.6-.96,1.38-.96,1.98,0,.47.11.93.42,1.42.28.47,1.01,1.03,1.87,1.02h241.7v-1.91Z"/>
  <path class="cls-25" d="M238.73,180.52c.18-7.61,2.96-48.79,4.15-68.31l.06-.59,3.75.23v.05s-3.51,57.86-3.51,57.86c0,0,.63,15.46-5.1,18.28-2.06,1.01-3.96,1.46-5.68,1.53,1.82-.71,6.19-3.03,6.34-9.05Z"/>
  <path class="cls-2" d="M238.73,180.52l1.91.05c.18-7.48,2.96-48.74,4.14-68.25l-1.9-.12,1.9.18.06-.59-1.9-.18-.12,1.9,3.75.23.12-1.9-1.91.02v.05s1.91-.02,1.91-.02l-1.9-.12-3.52,57.96v.1s.02.45.02,1.26c0,1.83-.11,5.4-.76,8.66-.32,1.63-.79,3.17-1.38,4.34-.59,1.19-1.28,1.92-1.92,2.23-1.85.91-3.47,1.28-4.91,1.34l.07,1.91.69,1.78c1.08-.42,2.88-1.29,4.49-3,1.62-1.7,2.99-4.31,3.06-7.78l-1.91-.05-1.91-.05c-.07,2.55-.96,4.11-2.02,5.25-1.06,1.13-2.36,1.78-3.1,2.06l-10.57,4.12,11.34-.43c2-.07,4.18-.6,6.45-1.72,1.71-.85,2.84-2.33,3.65-3.95,1.21-2.44,1.8-5.35,2.15-8.05.34-2.7.4-5.18.4-6.66,0-.86-.02-1.39-.02-1.41l-1.91.08,1.9.12,3.52-57.93v-.12s-.02-1.78-.02-1.78l-7.37-.45-.23,2.42v.03s0,.04,0,.04c-1.18,19.53-3.96,60.65-4.15,68.38l1.91.05Z"/>
  <path class="cls-15" d="M178.33,146.07c.04-.74.09-1.48.14-2.23l-.14,2.23Z"/>
  <path class="cls-2" d="M178.33,146.07l1.9.12c.04-.74.09-1.48.14-2.23l-3.81-.23-.14,2.23,3.81.23-1.9-.12,1.9.12.14-2.23-3.81-.23c-.05.75-.09,1.49-.14,2.23l3.81.23-1.9-.12Z"/>
  <path class="cls-15" d="M180.65,107.88l-.04.67.07-.72,5.32.32-.13,1c-.15,2.5-3.42,56.19-3.55,58.19l-5.26-.32h0s54.19,3.29,54.19,3.29h0s0,0,0,0c0,0,6.08.86,5.55,6.26-.53,5.41-6.26,5.55-6.26,5.55l-8.24-.62s.44,3.05,2.9,5.39c2.54,2.41,7.18,4.06,13.08,1.15,5.73-2.82,5.1-18.28,5.1-18.28l3.51-57.86v-.05s-66.24-4.02-66.24-4.02v.05Z"/>
  <path class="cls-2" d="M180.65,107.88l-1.9-.12-.04.67,3.8.29.07-.72-1.9-.18-.12,1.9,5.32.32.12-1.9-1.89-.24-.13,1v.06s-.01.06-.01.06c-.15,2.49-3.42,56.2-3.55,58.18l1.9.12.12-1.9-7.28-.44v3.82l65.3,3.96-8.35-4.17-1.71,3.41h0s.28.14.28.14l.31.04.1-.71-.11.71h0s.1-.71.1-.71l-.11.71s1.22.21,2.21.82c.5.3.94.68,1.23,1.12.3.45.49.97.5,1.77l-.02.47c-.11,1.02-.41,1.65-.8,2.15-.57.74-1.46,1.19-2.27,1.43-.4.12-.76.18-1.01.22l-.28.03h-.06s.02.33.02.33v-.32s-.02,0-.02,0l.02.32v-.32s.04,1.91.04,1.91l.14-1.9-10.62-.8.34,2.36c.05.2.51,3.64,3.48,6.5,1.9,1.81,4.76,3.23,8.28,3.22,2.14,0,4.5-.53,6.96-1.74,1.71-.85,2.84-2.33,3.65-3.95,1.21-2.44,1.8-5.35,2.15-8.05.34-2.7.4-5.18.4-6.66,0-.87-.02-1.39-.02-1.41l-1.91.08,1.9.12,3.52-57.93v-.12s-.02-1.78-.02-1.78l-69.92-4.24-.13,1.95h0s1.9.12,1.9.12l1.9.12v-.05s-1.9-.12-1.9-.12l-.12,1.9,66.24,4.02.12-1.9-1.91.02v.05s1.91-.02,1.91-.02l-1.9-.12-3.52,57.96v.1s.02.45.02,1.26c0,1.83-.11,5.4-.76,8.66-.32,1.63-.79,3.17-1.38,4.34-.59,1.19-1.28,1.92-1.92,2.23-2,.99-3.76,1.35-5.28,1.35-2.48,0-4.39-.98-5.65-2.18-.97-.92-1.57-2.02-1.92-2.89-.17-.44-.28-.81-.34-1.06l-.06-.28v-.06s-.3.05-.3.05l.29-.04h0s-.29.04-.29.04l.29-.04-1.89.27-.14,1.9,8.34.63h.1c.15-.01,1.8-.04,3.7-.93.95-.45,1.97-1.14,2.81-2.19.84-1.05,1.45-2.46,1.61-4.14l.04-.85c0-1.57-.48-2.96-1.21-4-1.11-1.57-2.62-2.4-3.8-2.87-1.19-.47-2.11-.6-2.21-.62l-.27,1.89.85-1.71h0s-1.71,3.41-1.71,3.41h0s.85-1.71.85-1.71l.12-1.9-54.19-3.29-.12,1.9h1.91s-1.91,0-1.91,0l-.12,1.9,7.16.43.12-1.9c.13-2.01,3.4-55.69,3.55-58.19l-1.9-.12,1.89.24.13-1,.26-2.02-9.2-.56-.24,2.56,1.9.18,1.9.12.04-.67h0s-1.9-.12-1.9-.12Z"/>
  <path class="cls-15" d="M178.65,140.72c.08-1.3.16-2.6.24-3.9l-.24,3.9Z"/>
  <path class="cls-2" d="M178.65,140.72l1.9.12c.08-1.3.16-2.6.24-3.9l-3.81-.23-.24,3.9,3.81.23-1.9-.12,1.9.12.24-3.9-3.81-.23c-.08,1.3-.16,2.6-.24,3.9l3.81.23-1.9-.12Z"/>
  <path class="cls-15" d="M177.32,162.71c.18-3,.44-7.32.74-12.25l-.74,12.25Z"/>
  <path class="cls-2" d="M177.32,162.71l1.9.12c.18-3,.44-7.32.74-12.25l-3.81-.23-.74,12.25,3.81.23-1.9-.12,1.9.12.74-12.25-3.81-.23c-.3,4.93-.56,9.25-.74,12.25l3.81.23-1.9-.12Z"/>
  <path class="cls-15" d="M177.17,165.23l-.1,1.68h0c.01-.26.05-.85.1-1.68Z"/>
  <path class="cls-2" d="M177.17,165.23l-1.9-.12-.1,1.68,3.81.25h0s0-.04,0-.04c.01-.24.05-.84.1-1.67l-3.81-.23,1.9.12-1.9-.12c-.05.83-.09,1.43-.1,1.67l1.9.11-1.9-.14h0s1.9.15,1.9.15l1.9.12.1-1.68-3.81-.23,1.9.12Z"/>
  <path class="cls-15" d="M180.34,112.86c.04-.6.07-1.15.1-1.64l-.1,1.64Z"/>
  <path class="cls-2" d="M180.34,112.86l1.9.12c.04-.6.07-1.15.1-1.64l-3.81-.23-.1,1.64,3.81.23-1.9-.12,1.9.12.1-1.64-3.81-.23c-.03.49-.06,1.04-.1,1.64l3.81.23-1.9-.12Z"/>
  <path class="cls-15" d="M180.55,109.47v-.12s0,.12,0,.12Z"/>
  <polygon class="cls-2" points="180.55 109.47 182.45 109.59 182.46 109.48 178.65 109.24 178.65 109.36 182.45 109.59 180.55 109.47 182.45 109.59 182.46 109.48 178.65 109.24 178.65 109.36 182.45 109.59 180.55 109.47"/>
  <path class="cls-12" d="M185.87,109.16l.13-1-5.32-.32-.07.72h0c0,.08-.02.36-.05.8v.12c-.03.44-.07,1.03-.11,1.74-.03.49-.06,1.04-.1,1.64-.32,5.24-.88,14.53-1.45,23.97-.08,1.3-.16,2.6-.24,3.9-.06,1.05-.13,2.09-.19,3.12-.05.75-.09,1.49-.14,2.23-.09,1.5-.18,2.97-.27,4.39-.3,4.93-.56,9.25-.74,12.25-.06,1-.11,1.84-.15,2.52-.05.83-.09,1.43-.1,1.67h0s0,.13,0,.13l5.26.32c.13-2,3.4-55.69,3.55-58.19Z"/>
  <path class="cls-2" d="M185.87,109.16l1.89.24.13-1,.26-2.02-9.2-.56-.24,2.56v.09s0,.09,0,.09h1.91l-1.9-.11c0,.08-.02.36-.05.8v.11c-.03.44-.07,1.03-.11,1.74-.03.49-.06,1.04-.1,1.64-.32,5.24-.88,14.53-1.45,23.97-.08,1.3-.16,2.6-.24,3.9-.06,1.05-.13,2.09-.19,3.12-.05.75-.09,1.49-.14,2.23-.09,1.5-.18,2.97-.27,4.39-.3,4.93-.56,9.25-.74,12.25-.06,1-.11,1.84-.15,2.52-.05.83-.09,1.43-.1,1.67l1.9.11-1.9-.14h0s0,.15,0,.15l-.12,1.9,9.06.55.12-1.9c.13-2.01,3.4-55.69,3.55-58.19l-1.9-.12,1.89.24-1.89-.24-1.9-.12c-.15,2.49-3.42,56.2-3.55,58.18l1.9.12.12-1.9-5.26-.32-.12,1.9,1.9.12v-.12s-1.9-.12-1.9-.12l1.9.14h0s0-.04,0-.04c.01-.24.05-.84.1-1.67.04-.67.09-1.52.15-2.52.18-3,.44-7.32.74-12.25.09-1.42.18-2.89.27-4.39.04-.74.09-1.48.14-2.23.06-1.03.13-2.07.19-3.12.08-1.3.16-2.6.24-3.9.57-9.44,1.14-18.73,1.45-23.97.04-.6.07-1.15.1-1.64.04-.71.08-1.3.11-1.74v-.11c.03-.44.05-.72.06-.81v-.05s0-.06,0-.06h-1.91l1.9.18.07-.72-1.9-.18-.12,1.9,5.32.32.12-1.9-1.89-.24-.13,1v.06s-.01.06-.01.06l1.9.12Z"/>
  <path class="cls-25" d="M165.34,178.37l-.07-.8.07.8Z"/>
  <polygon class="cls-2" points="165.34 178.37 167.24 178.2 167.17 177.4 163.37 177.74 163.44 178.54 167.24 178.2 165.34 178.37 167.24 178.2 167.17 177.4 163.37 177.74 163.44 178.54 167.24 178.2 165.34 178.37"/>
  <path class="cls-25" d="M172.47,167.12l.73-.15-.73.15Z"/>
  <polygon class="cls-2" points="172.47 167.12 172.85 168.99 173.58 168.84 172.82 165.1 172.09 165.25 172.85 168.99 172.47 167.12 172.85 168.99 173.58 168.84 172.82 165.1 172.09 165.25 172.85 168.99 172.47 167.12"/>
  <path class="cls-25" d="M165.9,180.66l-.29-.9.29.9Z"/>
  <polygon class="cls-2" points="165.9 180.66 167.72 180.08 167.43 179.18 163.8 180.34 164.09 181.25 167.72 180.08 165.9 180.66 167.72 180.08 167.43 179.18 163.8 180.34 164.09 181.25 167.72 180.08 165.9 180.66"/>
  <path class="cls-25" d="M165.55,179.49l-.16-.78.16.78Z"/>
  <polygon class="cls-2" points="165.55 179.49 167.42 179.12 167.26 178.34 163.52 179.08 163.68 179.87 167.42 179.12 165.55 179.49 167.42 179.12 167.26 178.34 163.52 179.08 163.68 179.87 167.42 179.12 165.55 179.49"/>
  <path class="cls-25" d="M165.25,177.23c-.01-.38,0-.76.01-1.16-.02.39-.03.78-.01,1.16Z"/>
  <polygon class="cls-2" points="165.25 177.23 167.15 177.17 167.15 176.79 167.17 176.18 163.36 175.95 163.33 176.79 163.34 177.28 167.15 177.17 165.25 177.23 167.15 177.17 167.15 176.79 167.17 176.19 163.36 175.96 163.33 176.79 163.34 177.29 167.15 177.17 165.25 177.23"/>
  <polygon class="cls-25" points="167.22 183.02 167.6 183.47 167.36 183.16 167.22 183.02"/>
  <polygon class="cls-2" points="167.22 183.02 165.77 184.26 166.15 184.71 169.09 182.27 168.84 181.97 168.79 181.91 168.6 181.7 165.77 184.26 167.22 183.02 165.84 184.34 165.92 184.42 166.11 184.66 167.6 183.47 169.05 182.23 168.67 181.78 167.22 183.02 165.84 184.34 167.22 183.02"/>
  <path class="cls-25" d="M171.37,167.37c-3.1,1.01-5.2,3.58-5.88,7.07.99-4.6,4.68-6.62,5.88-7.07Z"/>
  <path class="cls-2" d="M171.37,167.37l-.59-1.81c-3.8,1.21-6.41,4.48-7.16,8.52l3.74.76c.4-1.87,1.33-3.18,2.31-4.11.96-.92,2.02-1.45,2.37-1.57l-1.25-3.6.59,1.81-.66-1.79c-.86.32-2.25,1.03-3.68,2.38-1.42,1.34-2.83,3.35-3.41,6.08l1.86.4,1.87.36c.6-2.94,2.2-4.81,4.6-5.61l-.59-1.81-.66-1.79.66,1.79Z"/>
  <path class="cls-25" d="M168,177.46c-.16,1.26-.16,2.74.03,4.44l55.49,3.37.75.85c-1.33-1.63-2.31-3.94-2.14-7.22.08-1.62.43-2.92.94-3.99l-47.38-2.88c-4.13-.25-7.16,1.31-7.68,5.42Z"/>
  <path class="cls-2" d="M168,177.46l-1.89-.24c-.09.69-.13,1.42-.13,2.19,0,.85.05,1.75.16,2.7l.18,1.6,56.3,3.42.22.25,2.91-2.47c-.97-1.21-1.72-2.8-1.73-5.29l.02-.63c.07-1.4.37-2.43.76-3.27l1.21-2.55-50.2-3.05-.95-.03c-2.12,0-4.14.46-5.77,1.66-1.64,1.2-2.7,3.15-2.97,5.45l1.89.24,1.89.24c.21-1.53.73-2.3,1.46-2.87.75-.56,1.91-.91,3.5-.91l.71.02,47.38,2.88.12-1.9-1.72-.82c-.62,1.3-1.03,2.87-1.12,4.71l-.02.82c-.01,3.31,1.11,5.9,2.59,7.7l1.48-1.2,1.43-1.26-.75-.85-.52-.59-56.28-3.41-.12,1.9,1.9-.21c-.09-.83-.14-1.59-.14-2.28,0-.63.04-1.2.1-1.71l-1.89-.24Z"/>
  <path class="cls-25" d="M168.35,184.05l.03.16-.76-.73c1.51,1.65,3.67,2.69,6.37,2.85-2.06-.13-4.07-1.05-5.64-2.28Z"/>
  <path class="cls-2" d="M168.35,184.05l-1.88.3.03.16,1.88-.3,1.32-1.37-.76-.73-2.73,2.66c1.85,2.03,4.54,3.29,7.66,3.47l.23-3.81c-1.57-.09-3.26-.84-4.57-1.88l-3.84-3.02.78,4.83,1.88-.3-1.18,1.5c1.82,1.43,4.14,2.53,6.7,2.69l.23-3.81c-2.27-.15-3.91-.97-5.08-2.24l-1.41,1.29-1.32,1.37.76.73,4.11,3.96-.93-5.8-1.88.3-1.18,1.5,1.18-1.5Z"/>
  <path class="cls-25" d="M165.93,180.75c.14.37.3.72.49,1.06h.01c-.19-.34-.35-.69-.5-1.06Z"/>
  <path class="cls-2" d="M165.93,180.75l-1.78.69c.17.44.36.86.59,1.28l.51.93,1.07.06,3.43.2-1.65-3.02-.39-.84-3.56,1.38,1.78-.69-1.78.69c.18.46.38.88.6,1.28l1.67-.91.11-1.9h-.01s-.11,1.9-.11,1.9l1.68-.91-.38-.84-3.56,1.38,1.78-.69Z"/>
  <path class="cls-25" d="M168.03,181.91c.08.68.18,1.39.32,2.14,1.57,1.23,3.57,2.16,5.64,2.28l56.09,3.4s-3.41-1.16-5.81-3.62l-.75-.85-55.49-3.37Z"/>
  <path class="cls-2" d="M168.03,181.91l-1.9.21c.08.72.19,1.48.34,2.29l.13.7.56.44c1.82,1.43,4.14,2.53,6.7,2.69l70.17,4.26-13.35-4.56-.1-.04c-.56-.19-3.23-1.32-4.96-3.11l-1.36,1.33,1.43-1.26-.75-.85-.52-.59-58.54-3.55.25,2.25,1.9-.21-.12,1.9,54.7,3.32.22.25.03.04.03.03c2.83,2.86,6.42,4.03,6.55,4.09l.62-1.8.12-1.9-56.09-3.4c-1.57-.09-3.26-.84-4.57-1.88l-1.18,1.5,1.87-.35c-.13-.71-.23-1.37-.3-2l-1.9.21-.12,1.9.12-1.9Z"/>
  <path class="cls-25" d="M166.43,181.81h-.01s-.21-.01-.21-.01c.28.42.63.82,1.01,1.22l.14.15c-.35-.42-.66-.87-.93-1.36Z"/>
  <path class="cls-2" d="M166.43,181.81l.11-1.9h-.01s-.2-.01-.2-.01l-3.83-.23,2.13,3.19c.37.55.79,1.04,1.22,1.48l.14.15,2.85-2.54c-.28-.34-.53-.69-.72-1.05l-.51-.93-1.06-.06-.11,1.9-1.67.91c.33.61.72,1.16,1.14,1.66l1.47-1.22,1.38-1.32-.14-.15c-.33-.35-.61-.68-.8-.96l-1.59,1.06-.12,1.9h.21s.01.01.01.01l.11-1.9-1.67.91,1.67-.91Z"/>
  <path class="cls-12" d="M177.06,167.03l-1.89-.11c-.68-.04-1.34-.02-1.96.06l-.73.15-.93.19-.17.06c-1.2.44-4.9,2.46-5.88,7.07-.11.51-.2,1.05-.23,1.62h0c-.02.4-.03.79-.01,1.17l.02.34.07.8.05.34.16.78.07.27.29.9.03.08c.14.37.31.72.5,1.06.27.49.58.94.93,1.36l.24.3.02.02.76.73-.03-.16c-.14-.76-.25-1.47-.32-2.14-.19-1.71-.19-3.19-.03-4.44.52-4.11,3.55-5.67,7.68-5.42l47.38,2.88h.18c2.66-3.47,8.01-4.6,8.01-4.6h0s-54.19-3.29-54.19-3.29Z"/>
  <path class="cls-2" d="M177.06,167.03l.12-1.9-1.89-.11-.78-.02c-.52,0-1.03.03-1.53.09h-.08s-.81.17-.81.17l-.93.19-.13.03-.29.1h-.02c-.86.33-2.25,1.04-3.68,2.39-1.42,1.34-2.83,3.35-3.41,6.08-.12.58-.23,1.21-.27,1.91v.06s0,.07,0,.07h1.91l-1.9-.11-.02.83v.5s0,.03,0,.03l.02.37v.03s.08.83.08.83v.06s.07.4.07.4v.04s.17.83.17.83v.04s.08.31.08.31l.02.07.31.96v.02s.05.11.05.11v.04s.02.02.02.02c.18.46.38.88.6,1.28.33.61.72,1.16,1.14,1.66l1.47-1.22-1.49,1.19.24.3.04.05.06.07.04.04.8.77,4.11,3.96-.94-5.81v-.03c-.14-.71-.23-1.37-.31-2-.09-.83-.14-1.59-.14-2.28,0-.63.04-1.2.1-1.71.21-1.53.73-2.3,1.46-2.87.75-.56,1.91-.91,3.5-.91l.72.02,47.38,2.88h.18s1.01.07,1.01.07l.62-.81c1.01-1.34,2.74-2.38,4.24-3.02.75-.32,1.43-.55,1.91-.69l.56-.15.14-.03h.03s-.39-1.87-.39-1.87l-.85,1.71h0s.85-1.71.85-1.71l.12-1.9-54.19-3.29-.12,1.9-.12,1.9,63.51,3.85-8.94-4.47-.65.14c-.08.02-1.52.32-3.37,1.11-1.83.8-4.11,2.06-5.77,4.21l1.52,1.16.12-1.9h-.18s-47.38-2.89-47.38-2.89l-.95-.03c-2.12,0-4.14.46-5.77,1.66-1.64,1.2-2.7,3.15-2.97,5.45-.09.69-.13,1.42-.13,2.19,0,.85.05,1.75.16,2.7.08.72.19,1.48.34,2.29l1.87-.35-1.88.3.03.16,1.88-.3,1.32-1.37-.76-.73-1.32,1.37,1.4-1.29-.02-.02-1.4,1.29,1.49-1.19-.24-.3h0s-.01-.02-.01-.02c-.28-.34-.53-.69-.72-1.05l-.39-.84-1.78.69,1.8-.63-.02-.06-.26-.82-.04-.17-.14-.69-.04-.24-.07-.72-.02-.31-1.9.12,1.91-.06v-.38s.01-.61.01-.61v-.06s0-.07,0-.07h-1.91l1.9.12c.03-.46.1-.89.19-1.34.4-1.87,1.33-3.18,2.31-4.11.96-.92,2.02-1.45,2.37-1.57l-.66-1.79.64,1.8.04-.02.8-.16.73-.15-.38-1.87.23,1.89c.35-.04.71-.06,1.08-.06l.55.02,1.89.11.12-1.9Z"/>
  <path class="cls-20" d="M222.3,181.42l8.24.71s5.93.36,6.26-5.55c.34-5.9-4.44-6.01-6.39-6.13-9.57-.58-8.11,10.96-8.11,10.96Z"/>
  <path class="cls-2" d="M222.3,181.42l-.16,1.9,8.26.71h.02s.3,0,.3,0c.68,0,2.4-.07,4.21-1.03.9-.48,1.82-1.23,2.52-2.29.7-1.07,1.15-2.43,1.24-4.03l.02-.69c0-1.6-.35-2.98-1.01-4.08-.99-1.67-2.57-2.51-3.92-2.9-1.35-.4-2.6-.43-3.28-.47l-.8-.02c-1.97,0-3.67.48-5.02,1.33-2.03,1.28-3.12,3.25-3.7,5.08-.58,1.84-.69,3.62-.7,4.88,0,1.07.09,1.77.1,1.84l.19,1.53,1.53.13.16-1.9,1.89-.24v-.07c-.02-.17-.07-.65-.07-1.29-.01-1.36.21-3.45,1.02-4.95.4-.75.91-1.35,1.6-1.79.69-.43,1.6-.74,2.98-.74l.57.02c.97.04,2.29.15,3.15.61.43.23.74.49,1,.91.25.42.46,1.06.47,2.12v.47c-.08,1.04-.33,1.68-.64,2.15-.45.69-1.12,1.08-1.85,1.33-.72.24-1.45.28-1.7.27h-.08s0,.14,0,.14v-.14s0,0,0,0v.14s0-.14,0-.14l-.11,1.9.16-1.9-8.24-.71-.16,1.9,1.89-.24-1.89.24Z"/>
  <path class="cls-21" d="M188.09,158.74l45.25,2.75c.91.06,1.63.6,1.59,1.22-.04.62-.81,1.08-1.72,1.02l-45.25-2.75c-.91-.06-1.63-.6-1.59-1.22.04-.62.81-1.08,1.72-1.02Z"/>
  <path class="cls-21" d="M188.52,151.73l45.25,2.75c.91.06,1.63.6,1.59,1.22-.04.62-.81,1.08-1.72,1.02l-45.25-2.75c-.91-.06-1.63-.6-1.59-1.22.04-.62.81-1.08,1.72-1.02Z"/>
  <path class="cls-21" d="M188.94,144.73l45.25,2.75c.91.06,1.63.6,1.59,1.22s-.81,1.08-1.72,1.02l-45.25-2.75c-.91-.06-1.63-.6-1.59-1.22.04-.62.81-1.08,1.72-1.02Z"/>
  <path class="cls-21" d="M189.37,137.72l45.25,2.75c.91.06,1.63.6,1.59,1.22s-.81,1.08-1.72,1.02l-45.25-2.75c-.91-.06-1.63-.6-1.59-1.22.04-.62.81-1.08,1.72-1.02Z"/>
  <path class="cls-21" d="M189.79,130.72l45.25,2.75c.91.06,1.63.6,1.59,1.22-.04.62-.81,1.08-1.72,1.02l-45.25-2.75c-.91-.06-1.63-.6-1.59-1.22.04-.62.81-1.08,1.72-1.02Z"/>
  <path class="cls-21" d="M190.22,123.71l45.25,2.75c.91.06,1.63.6,1.59,1.22-.04.62-.81,1.08-1.72,1.02l-45.25-2.75c-.91-.06-1.63-.6-1.59-1.22s.81-1.08,1.72-1.02Z"/>
  <path class="cls-3" d="M152.22,85.89l12.03,12.21s7.66,5.96,10.26,10.94c2.6,4.99,11.96,9.71,12.64,10.21.68.5,5.51,3.54,2.95,6.64-2.56,3.1,9.84,2.3,8.48,7.68s2.5,5.47,3.05,10.04c.55,4.57,6.29-.34,9.24,2.41,2.95,2.75,7.13.29,9.94-2.07,2.8-2.36,3.97-.39,6.18,2.64,2.21,3.03,9.44-1.05,9.44-1.05l8.44,6.26s-38.9,14.45-63.16-2.84c-24.26-17.29-34.49-44.78-29.5-63.07Z"/>
  <path class="cls-2" d="M152.22,85.89l-1.36,1.34,12.12,12.3.1.08.31.25c.72.58,2.59,2.12,4.53,4.03,1.94,1.89,3.95,4.2,4.9,6.04,1.64,3.07,4.81,5.52,7.66,7.48,1.43.97,2.78,1.78,3.81,2.39.52.3.96.55,1.28.73l.38.22.09.06h0s.52-.77.52-.77l-.56.75.04.03.52-.78-.56.75.79.57c.49.37,1.11.89,1.53,1.42.44.53.61,1.01.6,1.23-.01.16-.02.31-.3.67-.4.48-.78,1.14-.79,1.99,0,.99.58,1.77,1.06,2.15.87.7,1.74.97,2.68,1.31,1.4.46,2.94.91,3.97,1.45.51.26.87.54,1.03.74l.19.46-.05.33c-.23.92-.35,1.76-.35,2.54-.02,2.29,1.09,3.89,1.86,4.92.79,1.11,1.3,1.79,1.5,3.27.12,1.09.55,2.18,1.43,2.89.87.71,1.87.85,2.66.85.9,0,1.71-.17,2.46-.3.75-.13,1.45-.24,1.99-.24.7.01,1.01.13,1.3.38,1.26,1.19,2.87,1.74,4.37,1.72,3.27-.06,6.01-2.02,8.1-3.73l.77-.53.21-.07v-.03.03s0,0,0,0v-.03.03s.2.12.2.12c.43.29,1.23,1.37,2.24,2.78.52.72,1.25,1.23,1.99,1.52.74.29,1.49.38,2.21.38,1.93-.01,3.76-.64,5.22-1.23,1.44-.59,2.46-1.16,2.51-1.19l-.94-1.66-1.14,1.53,8.44,6.26,1.14-1.53-.66-1.79s-.21.08-.64.23c-3.04,1.05-16.45,5.32-31.26,5.31-10.14,0-20.87-1.99-29.48-8.14-19.78-14.08-29.96-35.18-29.93-51.8,0-3.28.39-6.38,1.17-9.22l-1.84-.5-1.36,1.34,1.36-1.34-1.84-.5c-.87,3.2-1.3,6.64-1.3,10.23.03,18.11,10.81,40.1,31.53,54.9,9.54,6.8,21.08,8.85,31.7,8.85,17.75-.01,33.12-5.74,33.23-5.78l3.3-1.22-12.26-9.1-1.08.61-.13.07c-.34.18-1.29.67-2.41,1.09-1.11.43-2.42.77-3.31.76-.37,0-.65-.06-.82-.12l-.3-.22c-.75-1.03-1.4-1.98-2.19-2.82-.39-.41-.83-.81-1.38-1.12-.54-.31-1.23-.53-1.95-.53-1.3.01-2.4.63-3.43,1.49-1.76,1.53-4.16,2.89-5.64,2.83-.69-.02-1.17-.17-1.77-.7-1.18-1.11-2.68-1.41-3.89-1.4-.98,0-1.87.16-2.65.3-.77.14-1.43.24-1.81.24l-.3-.03h0s-.11.24-.11.24l.23-.14-.12-.1-.11.25.23-.14-.11-.44c-.27-2.41-1.43-4-2.19-5.05-.78-1.11-1.11-1.56-1.13-2.69,0-.41.06-.93.23-1.61.11-.42.16-.84.16-1.27,0-.86-.26-1.69-.67-2.35-.74-1.16-1.8-1.83-2.84-2.34-1.56-.76-3.25-1.2-4.45-1.62-.59-.2-1.06-.41-1.21-.51l-.05-.03-.46.53.6-.33-.15-.19-.46.53.6-.33-1.01.56h1.16l-.14-.56-1.01.56h1.16-.99l.91.4.08-.4h-.99l.91.4-.39-.17.36.23.03-.06-.39-.17.36.23.02-.03c.77-.91,1.19-2.04,1.18-3.1,0-1.02-.34-1.91-.76-2.64-.64-1.09-1.48-1.9-2.21-2.51-.71-.6-1.4-1.05-1.5-1.13l-.38-.25c-.87-.52-3.27-1.81-5.78-3.56-2.5-1.72-5.02-3.95-5.92-5.75-1.51-2.87-4.18-5.65-6.49-7.85-2.31-2.18-4.26-3.7-4.29-3.72l-1.17,1.51,1.36-1.34-14.36-14.57-.87,3.19,1.84.5Z"/>
  <path class="cls-21" d="M177.29,129.72c-.88,1.19-1.18,2.46-.66,2.84.51.38,1.65-.27,2.53-1.46.88-1.19,1.18-2.46.66-2.84-.51-.38-1.65.27-2.53,1.46Z"/>
  <path class="cls-21" d="M187.21,136.8c-.5,1.38-.4,2.67.21,2.86.61.2,1.51-.76,2.01-2.15.5-1.38.4-2.67-.21-2.87-.61-.2-1.51.76-2.01,2.15Z"/>
  <path class="cls-21" d="M170.61,120.67c-1.32.61-2.2,1.6-1.96,2.2s1.51.6,2.84-.02,2.2-1.6,1.96-2.2-1.51-.6-2.84.02Z"/>
  <path class="cls-21" d="M165.28,111.36c-1.43.1-2.58.71-2.57,1.37,0,.66,1.17,1.12,2.6,1.03,1.43-.1,2.58-.71,2.57-1.37,0-.66-1.17-1.12-2.6-1.03Z"/>
  <path class="cls-16" d="M177.58,146.43c-35.52-26.43-23.72-64.5-24.92-62.88-15.66,21.05-7.7,53.5,17.79,72.46,25.49,18.97,58.86,17.27,74.52-3.78,1.21-1.62-35.85,17.66-67.39-5.8Z"/>
  <path class="cls-2" d="M177.58,146.43l1.14-1.53c-10.77-8.02-17-17.04-20.59-25.68-3.59-8.63-4.51-16.88-4.51-23.24,0-3.33.25-6.15.51-8.23.13-1.04.25-1.9.35-2.56.1-.69.17-1.05.18-1.58l-.07-.59-.38-.74c-.24-.34-.89-.72-1.48-.7-.78.03-1.08.34-1.27.47l-.33.35c-5.7,7.65-8.4,16.76-8.4,26.13.01,17.64,9.5,36.28,26.59,49,12.19,9.07,26.16,13.56,39.3,13.56,15.05,0,29.11-5.94,37.89-17.74.1-.18.36-.4.41-1.2l-.32-1.07c-.35-.51-.8-.71-1.07-.79l-.59-.09c-.47.02-.61.08-.85.14-.77.22-1.94.65-3.68,1.24-5.18,1.74-14.96,4.65-26.47,4.64-10.97,0-23.46-2.61-35.2-11.35l-1.14,1.53-1.14,1.53c12.51,9.31,25.92,12.11,37.48,12.1,8.64,0,16.28-1.54,21.91-3.08,2.81-.77,5.12-1.54,6.78-2.11.83-.28,1.5-.52,1.96-.68l.52-.16.07-.02-.24-1.19v1.21l.24-.02-.24-1.19v1.21-1.79l-.8,1.6c.45.21.67.18.8.19v-1.79l-.8,1.6.84-1.67-1.56,1.03.72.64.84-1.67-1.56,1.03,1.57-1.03h-1.88l.31,1.03,1.57-1.03h-1.88,1.8l-1.44-1.08c-.07.13-.31.31-.35,1.08h1.8l-1.44-1.08c-7.96,10.7-20.74,16.19-34.83,16.2-12.27,0-25.47-4.21-37.03-12.81-16.21-12.05-25.06-29.68-25.05-45.94,0-8.65,2.48-16.9,7.65-23.85l-1.35-1.01,1.09,1.28.26-.28-1.35-1,1.09,1.28-1.21-1.42v1.86c.76-.03,1.05-.33,1.21-.45l-1.21-1.42v1.86-1.89l-1.46,1.2c.23.33.87.71,1.46.69v-1.89l-1.46,1.2,1.41-1.16-1.81.29c.04.14.03.38.4.87l1.41-1.16-1.81.29,1.44-.23h-1.46l.02.23,1.44-.23h-1.46.5l-.5-.03v.03s.5,0,.5,0l-.5-.03c0,.06-.07.58-.17,1.24-.3,2.06-.87,6.03-.87,11.15,0,6.73.97,15.49,4.8,24.71,3.82,9.21,10.53,18.86,21.84,27.27l1.14-1.53Z"/>
  <path class="cls-6" d="M242.97,151.03c0-1.3,2.22-24.82,9.94-26.64,7.72-1.82,4.14,17.87,10.74-2.2,6.61-20.07,16.92-25.37,19.76-13.82,2.84,11.55,13.84-25.61,30.45-12.72,16.62,12.88-22.04,33.87-10.48,36.4s11.98,12.62-5.15,19.02c-17.12,6.4,3.28,21.53-22,20.94-25.28-.59-33.36-7.63-33.27-20.97Z"/>
  <path class="cls-2" d="M242.97,151.03h1.91s.03-.53.1-1.25c.26-2.62,1.02-8.45,2.52-13.69.74-2.62,1.68-5.08,2.74-6.87,1.07-1.82,2.22-2.79,3.11-2.97l.54-.07c.47.02.67.12,1.06.5.56.56,1.12,1.83,1.55,3.05.23.61.43,1.2.72,1.78l.65.94c.3.32.92.75,1.71.75.58,0,1.07-.23,1.4-.46.57-.42.85-.85,1.16-1.36.87-1.5,1.81-4.01,3.33-8.58,2.09-6.37,4.56-11.16,6.93-14.25,1.18-1.55,2.33-2.66,3.34-3.35,1.01-.69,1.84-.94,2.42-.93.63.02,1.09.19,1.71.86.61.67,1.25,1.89,1.69,3.71.24.93.51,1.71,1.03,2.41.48.7,1.47,1.33,2.46,1.3,1.26-.04,2.04-.63,2.76-1.22,1.25-1.07,2.43-2.6,3.8-4.37,2.04-2.64,4.41-5.78,7.02-8.18,2.62-2.42,5.36-3.99,8.09-3.97,1.78,0,3.71.61,5.98,2.35,2.66,2.11,3.45,4.03,3.48,6.17.01,2.02-.87,4.39-2.36,6.84-2.22,3.68-5.71,7.47-8.69,10.78-1.49,1.67-2.86,3.21-3.91,4.66-1.02,1.47-1.87,2.75-1.92,4.49-.02.9.4,1.95,1.13,2.6.73.66,1.59.99,2.56,1.21,2.42.53,4.19,1.41,5.26,2.36,1.08.97,1.49,1.91,1.5,2.94,0,1.21-.67,2.85-2.62,4.68-1.93,1.82-5.08,3.73-9.54,5.39-4.52,1.66-7.05,4.2-8.15,7-.83,2.07-.92,4.11-.97,5.87-.03,1.33-.04,2.52-.19,3.48-.11.72-.29,1.29-.57,1.75-.42.68-1.04,1.28-2.58,1.84-1.53.54-3.94.91-7.47.9-.43,0-.88,0-1.35-.02-12.41-.27-20.42-2.2-25.05-5.33-2.33-1.57-3.86-3.39-4.87-5.59-1.01-2.2-1.49-4.83-1.49-7.94v-.19s0,0,0,0h-1.91s-1.91-.03-1.91-.03v.23c0,3.49.54,6.69,1.83,9.53,1.94,4.28,5.64,7.55,11.07,9.67,5.44,2.13,12.67,3.25,22.23,3.48.49.01.97.02,1.44.02,5.96-.02,9.53-.88,11.86-2.86,1.75-1.5,2.39-3.53,2.59-5.32.3-2.72,0-5.3.63-7.38.31-1.04.79-1.96,1.71-2.88.92-.91,2.31-1.83,4.48-2.65,4.81-1.8,8.37-3.9,10.82-6.18,2.43-2.27,3.82-4.83,3.83-7.46.01-2.22-1.06-4.29-2.79-5.79-1.73-1.52-4.09-2.6-6.97-3.23-.58-.12-.8-.29-.8-.29l-.22.23.29-.12-.07-.11-.22.23.29-.12-.22.09h.25l-.03-.09-.22.09h.25s.08-.5.47-1.15c.66-1.15,2.02-2.8,3.66-4.64,2.47-2.79,5.59-6.08,8.13-9.6,2.53-3.53,4.6-7.32,4.62-11.38.03-3.3-1.57-6.6-4.96-9.18-2.76-2.15-5.6-3.16-8.32-3.15-3.19,0-6.03,1.34-8.47,3.15-3.67,2.73-6.64,6.6-9.06,9.72-1.2,1.56-2.27,2.94-3.11,3.84-.42.45-.78.78-1.01.93l-.2.12.18.45v-.47l-.18.02.18.45v-.47.9l.44-.79-.44-.12v.9l.44-.79-.29.51.44-.39-.15-.12-.29.51.44-.39-.02-.04c-.07-.11-.22-.45-.36-1.01-.55-2.22-1.37-4.01-2.55-5.35-1.17-1.33-2.83-2.15-4.56-2.13-1.6,0-3.13.61-4.58,1.6-4.3,3-8.41,9.55-11.73,19.56-1.12,3.41-1.95,5.65-2.53,6.94-.29.64-.53,1.03-.62,1.15l-.02.03.91.89v-1.22c-.62.01-.9.32-.91.33l.91.89v-1.22,1.49l.84-1.23c-.16-.12-.49-.26-.84-.25v1.49l.84-1.23-.57.83.81-.61-.24-.22-.57.83.81-.61-.07.05.07-.04h0s-.07.04-.07.04l.07-.04c-.06-.07-.3-.64-.54-1.32-.39-1.04-.87-2.41-1.76-3.68-.45-.63-1.02-1.25-1.78-1.73-.75-.48-1.7-.77-2.71-.77-.47,0-.94.06-1.42.17-1.41.33-2.6,1.14-3.57,2.14-1.7,1.77-2.91,4.17-3.92,6.84-1.49,3.99-2.45,8.58-3.06,12.31-.3,1.87-.52,3.52-.65,4.76-.14,1.27-.2,2.02-.21,2.44h0s1.91.01,1.91.01Z"/>
  <path class="cls-8" d="M247.68,162.83c.53.14,1.07.04,1.49-.28.43-.33,4.42-3.37,10.15-8.17l.25-.21,21.14,3.23c.93.14,1.78-.46,1.9-1.35.11-.81-.43-1.59-1.27-1.82l-.19-.04-18.31-2.8,1.13-.98c5.74-4.96,11.21-9.98,16.24-14.92l.26-.25,18.64,2.86c.45.07.89-.03,1.25-.29.36-.25.59-.63.65-1.06.12-.81-.42-1.6-1.25-1.82l-.2-.04-16.25-2.49.94-.96c8.19-8.37,14.83-16.24,19.74-23.4.51-.74.28-1.75-.5-2.26l-.5-.22c-.7-.19-1.44.07-1.84.65-5.58,8.15-13.52,17.28-23.6,27.14l-1.43,1.4,1.65-17.5c.08-.79-.46-1.53-1.27-1.75l-.27-.05c-.93-.1-1.75.54-1.84,1.43l-2.02,21.42-.19.17c-4.66,4.36-9.62,8.75-14.74,13.06l-1.3,1.09.79-14.77c.04-.77-.49-1.48-1.27-1.69l-.34-.06c-.45-.03-.88.11-1.22.39-.34.28-.53.68-.56,1.11l-.96,17.94-.23.19c-3.28,2.66-5.33,4.23-5.35,4.24-.35.27-.57.65-.61,1.08-.05.43.09.86.37,1.2.23.28.54.47.89.57Z"/>
  <path class="cls-17" d="M274.45,153.41c.33.34.82.45,1.28.31,3.14-.9,10.41-.69,11.02,6.23.42,4.75-5.46,7.34-9.62,4.92-.48-.28-1.04.16-.87.69.65,2.02,1.7,6.98-1.74,9.3-4.95,3.32-12.88-4.22-8.66-11.77.27-.48.18-1.07-.2-1.47l-29.81-31.04c-.38-.39-.97-.51-1.46-.26-7.72,3.91-14.93-4.32-11.41-9.13,2.45-3.35,7.37-2.09,9.36-1.36.52.19.99-.35.73-.84-2.25-4.26.58-10.02,5.31-9.41,6.89.89,6.81,8.17,5.78,11.26-.15.45-.06.94.26,1.29,4.29,4.57,25.65,26.82,30.04,31.29Z"/>
  <path class="cls-2" d="M274.45,153.41l-1.36,1.34c.61.63,1.45.94,2.25.94l.91-.13c.58-.17,1.47-.31,2.42-.31,1.44,0,3.01.32,4.1,1.05,1.08.74,1.86,1.72,2.07,3.82v.31c0,1.02-.41,1.78-1.18,2.43-.77.63-1.91,1.04-3.08,1.04-.86,0-1.73-.21-2.51-.66-.38-.22-.83-.35-1.27-.34-1.35,0-2.48,1.06-2.5,2.49l.12.78c.25.78.59,2.16.58,3.48,0,.79-.12,1.54-.37,2.15-.26.61-.6,1.09-1.21,1.5-.51.34-1.02.48-1.59.48-1.08.01-2.45-.61-3.51-1.78-1.06-1.15-1.78-2.76-1.78-4.49,0-1.09.27-2.24.95-3.47.27-.48.4-1.01.4-1.52,0-.81-.31-1.6-.89-2.2l-29.81-31.04c-.61-.63-1.43-.98-2.29-.98-.47,0-.96.11-1.41.34-1.15.58-2.24.81-3.25.82-1.76,0-3.37-.73-4.53-1.82-1.17-1.08-1.8-2.49-1.79-3.6,0-.63.17-1.17.55-1.7.41-.55.86-.87,1.42-1.1.56-.23,1.24-.33,1.96-.33,1.41,0,2.94.42,3.78.73l.87.16c1.42-.02,2.49-1.14,2.49-2.5,0-.41-.1-.82-.29-1.18-.38-.73-.56-1.52-.57-2.32,0-1.18.42-2.34,1.06-3.12.66-.79,1.44-1.21,2.44-1.22l.44.03c1.99.28,2.94,1.04,3.63,2.07.68,1.03.99,2.48.99,3.88,0,1.11-.19,2.17-.41,2.82-.11.33-.17.68-.17,1.04,0,.76.28,1.56.85,2.16,4.32,4.6,25.65,26.82,30.07,31.32l1.36-1.34,1.36-1.34c-4.37-4.44-25.75-26.71-30.01-31.26l-.48.45h.67l-.18-.45-.48.45h.67-.52l.5.16.03-.16h-.52l.5.16c.37-1.11.61-2.5.61-4.03,0-1.91-.38-4.06-1.61-5.96-1.21-1.91-3.41-3.42-6.34-3.77l-.93-.06c-2.23,0-4.15,1.08-5.39,2.62-1.25,1.54-1.92,3.5-1.93,5.54,0,1.37.31,2.79,1.01,4.1l1.14-.6h-1.28l.15.6,1.14-.6h-1.28,1.32v-1.32c-.77.02-1.31.59-1.32,1.32h1.32v-1.32,1.28l.44-1.2-.44-.08v1.28l.44-1.2c-1.12-.41-2.98-.96-5.09-.96-1.08,0-2.24.15-3.38.61-1.14.45-2.24,1.24-3.08,2.39-.88,1.19-1.29,2.6-1.29,3.96.01,2.43,1.19,4.68,2.99,6.38,1.8,1.69,4.31,2.85,7.14,2.85,1.61,0,3.31-.39,4.97-1.23l-.31-.62v.7l.31-.08-.31-.62v.7-.64l-.46.45.46.2v-.64l-.46.45,29.81,31.04.46-.44h-.64l.18.44.46-.44h-.64.7l-.61-.34-.09.34h.7l-.61-.34c-.99,1.77-1.44,3.6-1.44,5.33,0,2.79,1.13,5.27,2.79,7.08,1.66,1.79,3.89,2.99,6.32,3.01,1.27,0,2.58-.36,3.72-1.13,1.27-.85,2.13-2.02,2.62-3.23.49-1.21.64-2.44.65-3.59,0-1.91-.43-3.6-.77-4.65l-1.22.39h1.28l-.06-.39-1.22.39h1.28-1.32v1.32c.71,0,1.3-.55,1.32-1.32h-1.32v1.32-1.29l-.65,1.11.65.17v-1.29l-.65,1.11c1.4.81,2.94,1.18,4.42,1.18,2.01,0,3.96-.66,5.49-1.9,1.52-1.23,2.61-3.15,2.6-5.38l-.03-.64c-.24-3.1-1.8-5.42-3.79-6.68-1.98-1.28-4.23-1.66-6.18-1.67-1.31,0-2.49.17-3.48.46l.14.5v-.52l-.14.02.14.5v-.52.66l.47-.46-.47-.2v.66l.47-.46-1.36,1.34Z"/>
  <path class="cls-21" d="M307.42,164.84l-.54-.07c-1.11-.3-1.76-1.43-1.47-2.54l13.13-49.05c.3-1.11,1.43-1.77,2.54-1.47,1.11.3,1.76,1.43,1.47,2.54l-13.13,49.05c-.25.93-1.09,1.54-2,1.54Z"/>
  <path class="cls-21" d="M335.29,135.28s-15.89-8.21-38.64-10.76c0,0,20.7,9.1,38.64,10.76Z"/>
  <path class="cls-21" d="M329.07,143.78s-11.58-6.32-32.06-8.9c0,0,14.12,7.24,32.06,8.9Z"/>
  <path class="cls-21" d="M323.72,152.52s-10.54-6.06-27-7.46c0,0,11.14,5.72,27,7.46Z"/>
  <path class="cls-21" d="M318.16,161.2s-6.68-3.84-22.24-6.12c0,0,8.46,5.44,22.24,6.12Z"/>
  <path class="cls-4" d="M339.82,122.03s-.13-31.08-13.08-34.96c-11.56-3.47-26.92,25.87-26.92,25.87,0,0,16.74,11.92,40,9.1Z"/>
  <path class="cls-2" d="M339.82,122.03h1.91c0-.08-.03-7.93-1.72-16.4-.85-4.24-2.11-8.64-4.08-12.35-1.96-3.69-4.7-6.84-8.65-8.03-.83-.25-1.68-.37-2.51-.36-3.58.03-6.85,1.97-9.89,4.54-4.55,3.9-8.68,9.52-11.73,14.2-3.05,4.67-5,8.4-5.02,8.43l-.77,1.47,1.35.96c.18.11,13.85,9.86,33.95,9.88,2.38,0,4.84-.14,7.39-.45l1.68-.2v-1.7s-1.91,0-1.91,0l-.23-1.89c-2.38.29-4.7.42-6.93.42-9.42,0-17.39-2.31-22.99-4.62-2.8-1.16-5.01-2.31-6.51-3.17-.75-.43-1.32-.78-1.7-1.03l-.42-.28-.12-.08-1.11,1.55,1.69.88s.2-.38.59-1.08c1.36-2.45,4.94-8.64,9.34-14.12,2.19-2.74,4.59-5.3,6.93-7.11,2.35-1.83,4.6-2.83,6.4-2.81.49,0,.96.07,1.42.2,2.53.75,4.66,2.94,6.37,6.17,2.56,4.8,3.96,11.62,4.64,17.16.35,2.78.52,5.24.61,7.01.05.88.07,1.59.08,2.07.01.48.01.73.01.73h1.91s-.23-1.9-.23-1.9l.23,1.89Z"/>
  <path class="cls-24" d="M317.38,101.39l.26.35c.58.59,1.52.6,2.11.02,6.76-6.62,5.65-12.96,5.01-14.18-.38-.73-1.29-1.01-2.02-.63-.72.38-1,1.25-.65,1.97.07.22,1.33,5.06-4.44,10.69-.48.47-.58,1.19-.28,1.76Z"/>
  <path class="cls-4" d="M308,161.31s14.46,19.62,14.82,25.51c.28,4.56-45.13-8.25-40.58-11.37,5.42-3.71,22.2-15.54,25.76-14.14Z"/>
  <path class="cls-2" d="M308,161.31l-1.54,1.13s.89,1.21,2.24,3.13c2.03,2.88,5.08,7.33,7.63,11.58,1.28,2.12,2.43,4.19,3.26,5.95.83,1.74,1.31,3.25,1.33,3.85l1.26-.08h-1.26v.08s1.26-.08,1.26-.08h-1.26,1.31l-.93-.92-.37.92h1.31l-.93-.92.57.56-.32-.74-.24.18.57.56-.32-.74-.08.02c-.18.05-.63.1-1.22.1-1.96,0-5.44-.51-9.38-1.36-5.93-1.27-13.02-3.26-18.55-5.22-2.76-.97-5.15-1.94-6.75-2.77-.8-.41-1.4-.79-1.7-1.03l-.16-.14-.04-.04-.8.63h.98c-.01-.47-.18-.63-.17-.63l-.8.63h.98-1.39l1.19.74.21-.74h-1.39l1.19.74-.91-.57.61.89.3-.33-.91-.57.61.89c2.57-1.76,7.64-5.31,12.62-8.4,2.49-1.54,4.95-2.97,7.03-3.99,1.04-.51,1.97-.91,2.74-1.17.76-.27,1.36-.37,1.59-.37h.08s.06-.34.06-.34l-.13.33.07.02.06-.35-.13.33.69-1.78-1.54,1.13,1.54-1.13.69-1.78c-.49-.19-.96-.24-1.4-.24-.94,0-1.84.24-2.83.57-3.4,1.18-7.99,3.9-12.45,6.73-4.43,2.83-8.63,5.76-10.86,7.29-.27.19-.55.44-.78.8-.23.36-.37.84-.37,1.28.02.96.46,1.53.83,1.94.72.77,1.6,1.3,2.75,1.92,3.95,2.06,11.06,4.46,18.26,6.43,7.21,1.95,14.29,3.43,18.4,3.45.93,0,1.72-.06,2.52-.32.4-.14.83-.34,1.25-.76.42-.4.74-1.11.72-1.75v-.17c-.08-1.08-.41-2.15-.87-3.36-1.64-4.15-5.18-9.83-8.36-14.61-3.17-4.76-5.95-8.53-5.96-8.55l-.33-.44-.51-.2-.69,1.78Z"/>
  <path class="cls-24" d="M326.05,114.43l.13.2c.44.56,1.26.66,1.82.22l5.83-4.57c.57-.44.66-1.26.22-1.82-.44-.56-1.26-.66-1.82-.22l-5.83,4.57c-.5.39-.63,1.08-.35,1.62Z"/>
  <path class="cls-24" d="M327.03,109.12l.05.09,3.94,6.24c.38.61,1.19.79,1.79.41.61-.38.79-1.2.4-1.79l-3.94-6.24c-.38-.61-1.19-.79-1.79-.41-.58.36-.77,1.11-.46,1.7Z"/>
  <path class="cls-9" d="M180.17,228.88c-8.61,1.23-13.39,1-16.03.45-1.83-.38-3.22-1.87-3.49-3.72l-8.69-61.13c-1.12-7.89-2.17-12.58,5.16-18.43,4.76-3.8,4.46-7.92,3.56-14.24-.48-3.34-1.18-8.29-4.01-28.16l11.15-1.59c2.83,19.87,3.53,24.82,4.01,28.16.9,6.31,1.76,10.36,7.39,12.68,8.67,3.58,8.97,8.37,10.09,16.26l8.69,61.13c.26,1.85-.66,3.67-2.31,4.55-2.38,1.26-6.91,2.81-15.52,4.03Z"/>
  <path class="cls-2" d="M180.17,228.88l-.27-1.89c-4.52.64-7.94.88-10.5.88-2.24,0-3.81-.18-4.88-.4-1.04-.22-1.84-1.06-1.99-2.12l-8.69-61.13c-.41-2.85-.78-5.21-.78-7.19,0-1.78.27-3.22,1.01-4.7.74-1.47,2.02-3.02,4.23-4.78,1.77-1.41,3.02-2.97,3.79-4.69.77-1.72,1.03-3.53,1.02-5.38,0-1.86-.25-3.8-.55-5.93-.48-3.34-1.18-8.29-4.01-28.16l-1.89.27.27,1.89,11.15-1.59-.27-1.89-1.89.27c2.83,19.87,3.53,24.82,4.01,28.16.46,3.18.89,5.94,2.1,8.41,1.2,2.48,3.31,4.49,6.45,5.76,4.08,1.71,5.8,3.42,6.89,5.59,1.1,2.19,1.48,5.19,2.04,9.17l8.69,61.13.03.36c0,.93-.51,1.79-1.34,2.23-2.06,1.1-6.41,2.63-14.9,3.83l.27,1.89.27,1.89c8.74-1.25,13.45-2.81,16.15-4.24,2.09-1.11,3.37-3.28,3.37-5.6l-.06-.9-8.69-61.12c-.57-3.9-.89-7.24-2.39-10.32-1.5-3.09-4.27-5.57-8.86-7.43-2.49-1.05-3.62-2.22-4.49-3.92-.86-1.71-1.31-4.13-1.74-7.26-.48-3.34-1.18-8.29-4.01-28.16l-.27-1.89-14.93,2.12.27,1.89c2.83,19.87,3.53,24.82,4.01,28.16.3,2.09.51,3.88.51,5.39,0,1.52-.21,2.73-.69,3.83-.49,1.1-1.28,2.14-2.68,3.26-2.49,1.99-4.19,3.95-5.25,6.04-1.06,2.09-1.43,4.25-1.42,6.42,0,2.44.42,4.92.82,7.73l8.69,61.13c.38,2.65,2.37,4.78,4.99,5.32,1.39.29,3.22.48,5.65.48,2.78,0,6.37-.25,11.03-.91l-.27-1.89Z"/>
  <path class="cls-13" d="M309.6,149.84s16.69-5.59,22.93-14.48c6.24-8.88,24.11-26.06,35.52-.9,6.81,15.02,16.1,23.18,16.1,23.18,0,0-17.19,1.73-29.75-13.78,0,0-30.23,14.11-44.79,5.98Z"/>
  <path class="cls-2" d="M309.6,149.84l.61,1.81c.06-.02,4.3-1.44,9.38-4.01,5.08-2.59,11.02-6.26,14.5-11.17,1.81-2.59,4.73-5.99,8.12-8.65,3.39-2.69,7.22-4.58,10.76-4.56,2.24.01,4.41.68,6.67,2.49,2.25,1.81,4.55,4.83,6.67,9.51,6.98,15.38,16.45,23.7,16.58,23.82l1.26-1.43-.19-1.9h-.06c-.16.02-.63.05-1.33.05-2.11,0-6.37-.27-11.28-2.05-4.92-1.78-10.5-5.04-15.4-11.08l-.94-1.16-1.35.63s-.26.12-.78.35c-3.57,1.6-19.11,8.01-31.61,7.98-4.11,0-7.83-.69-10.67-2.28l-.93,1.67.61,1.81-.61-1.81-.93,1.67c3.67,2.04,8.02,2.76,12.53,2.76,7.84,0,16.27-2.19,22.81-4.35,6.53-2.16,11.15-4.31,11.19-4.33l-.81-1.73-1.48,1.2c5.37,6.64,11.61,10.3,17.07,12.27,5.46,1.97,10.15,2.28,12.58,2.28,1.09,0,1.72-.06,1.78-.07l4.36-.44-3.29-2.89-.08-.07c-.92-.83-9.31-8.71-15.54-22.46-2.29-5.05-4.88-8.58-7.74-10.9-2.85-2.32-6.01-3.35-9.07-3.34-4.87.02-9.35,2.42-13.12,5.38-3.77,2.98-6.87,6.6-8.88,9.46-2.75,3.96-8.28,7.54-13.1,9.96-2.41,1.22-4.64,2.18-6.27,2.82-.81.32-1.47.57-1.92.73-.45.16-.68.24-.68.24l-4.09,1.37,3.77,2.1.93-1.67Z"/>
  <path class="cls-21" d="M356.54,125.27s-.26-10.13,2.47-13.12c0,0-4.59-2.83-5.31.31-.54,2.32.06,9.99.06,9.99l2.79,2.82Z"/>
  <rect class="cls-19" x="128.8" y="374.19" width="31.65" height="75.76" rx="9.54" ry="9.54"/>
  <path class="cls-11" d="M150.91,449.95v-1.91h-12.58c-4.21,0-7.62-3.42-7.63-7.63v-56.68c0-4.21,3.42-7.62,7.63-7.63h12.58c4.21,0,7.62,3.42,7.63,7.63v56.68c0,4.21-3.42,7.62-7.63,7.63v3.81c6.32,0,11.44-5.12,11.44-11.44v-56.68c0-6.32-5.12-11.44-11.44-11.44h-12.58c-6.32,0-11.44,5.12-11.44,11.44v56.68c0,6.32,5.12,11.44,11.44,11.44h12.58v-1.91Z"/>
  <rect class="cls-19" x="325.43" y="374.19" width="31.65" height="75.76" rx="9.54" ry="9.54"/>
  <path class="cls-11" d="M347.55,449.95v-1.91h-12.58c-4.21,0-7.62-3.42-7.63-7.63v-56.68c0-4.21,3.42-7.62,7.63-7.63h12.58c4.21,0,7.62,3.42,7.63,7.63v56.68c0,4.21-3.42,7.62-7.63,7.63v3.81c6.32,0,11.44-5.12,11.44-11.44v-56.68c0-6.32-5.12-11.44-11.44-11.44h-12.58c-6.32,0-11.44,5.12-11.44,11.44v56.68c0,6.32,5.12,11.44,11.44,11.44h12.58v-1.91Z"/>
  <path class="cls-23" d="M327.07,437.16h-167.61c-6.86,0-12.52-5.36-12.9-12.21l-14.25-257.43h222.27l-14.61,257.45c-.39,6.84-6.05,12.19-12.9,12.19Z"/>
  <path class="cls-11" d="M327.07,437.16v-1.91h-167.61c-5.85,0-10.67-4.57-11-10.4l-14.14-255.42h218.24s-14.5,255.43-14.5,255.43c-.33,5.83-5.16,10.39-11,10.39v3.81c7.86,0,14.36-6.14,14.8-13.99l14.73-259.46h-226.31l14.37,259.44c.44,7.86,6.93,14.01,14.81,14.01h167.61v-1.91Z"/>
  <path class="cls-23" d="M349.03,173.35h-214.14c-9.6,0-17.38-7.78-17.38-17.38v-4.69c0-1.92,1.56-3.48,3.48-3.48h241.94c1.92,0,3.48,1.56,3.48,3.48v4.69c0,9.6-7.78,17.38-17.38,17.38Z"/>
  <path class="cls-11" d="M349.03,173.35v-1.91h-214.14c-4.28,0-8.13-1.73-10.94-4.53-2.8-2.81-4.53-6.66-4.53-10.94v-4.69c0-.87.7-1.57,1.57-1.57h241.94c.87,0,1.57.7,1.57,1.57v4.69c0,4.28-1.73,8.13-4.53,10.94-2.81,2.8-6.66,4.53-10.94,4.53v3.81c10.65,0,19.28-8.63,19.28-19.28v-4.69c0-2.97-2.41-5.38-5.38-5.38H120.99c-2.97,0-5.38,2.41-5.38,5.38v4.69c0,10.65,8.63,19.28,19.28,19.28h214.14v-1.91Z"/>
  <path class="cls-19" d="M113.63,282.72c3.61-22.04,18.45-25.72,21.88-26.29-.06,1.89.02,3.79.14,5.68-2.6,2.71-13.36,14.75-9.11,24.9,4.82,11.5,17.03,11.21,17.03,11.21,0,0,5.11,22.39-.81,21.77-5.93-.63-33.21-12.31-29.13-37.27Z"/>
  <path class="cls-11" d="M113.63,282.72l1.88.31c1.75-10.63,6.1-16.56,10.33-20.03,4.24-3.46,8.48-4.44,9.98-4.68l-.31-1.88-1.91-.06c-.01.47-.02.93-.02,1.4,0,1.51.07,3,.17,4.47l1.9-.12-1.37-1.32c-1.15,1.2-3.75,4.05-6.11,7.81-2.34,3.76-4.5,8.42-4.52,13.39,0,1.91.34,3.87,1.13,5.76,2.5,6.01,6.97,9.19,10.83,10.74,3.87,1.57,7.18,1.64,7.88,1.64h.13s-.05-1.91-.05-1.91l-1.86.42s.12.53.31,1.46c.57,2.76,1.7,8.98,1.69,13.52,0,1.67-.17,3.12-.46,3.89-.14.39-.29.58-.32.6h0s.1.16.1.16l-.05-.18-.05.02.1.16-.05-.18.04.12-.02-.13h-.02s.04.13.04.13l-.02-.13h0s-.04,0-.04,0c-1-.09-3.48-.79-6.36-2.1-4.35-1.97-9.81-5.33-14.08-10.04-4.28-4.73-7.39-10.72-7.4-18.24,0-1.49.12-3.05.39-4.68l-1.88-.31-1.88-.31c-.3,1.83-.44,3.59-.44,5.3,0,11.53,6.46,19.99,13.43,25.5,3.49,2.77,7.14,4.84,10.29,6.27,3.18,1.43,5.77,2.22,7.53,2.42l.44.02c.95.02,1.92-.39,2.55-1.01.97-.93,1.36-2.08,1.63-3.29.26-1.22.35-2.56.35-3.99-.01-6.78-2.09-15.76-2.1-15.83l-.35-1.52-1.56.04h-.04c-.39,0-3.26-.06-6.44-1.36-3.2-1.32-6.66-3.74-8.74-8.68-.58-1.39-.83-2.82-.83-4.29-.02-3.81,1.78-7.94,3.94-11.36,2.14-3.42,4.59-6.12,5.62-7.19l.58-.61-.05-.84c-.09-1.43-.16-2.83-.16-4.22,0-.43,0-.85.02-1.28l.07-2.32-2.29.37c-1.93.32-6.83,1.46-11.77,5.49-4.95,4.02-9.83,10.95-11.68,22.37l1.88.31Z"/>
  <path class="cls-14" d="M141.68,301.18s-2.84,4.68-5.53,8.61c-2.16,3.16-9.2,2.13-13.92-.92,0,0,14.12,8.05,18.33,9.66,0,0-.46-11.47,1.81-17.18l-.7-.17Z"/>
  <path class="cls-1" d="M189.01,263.42c-2.72.89-2.93-6.26.81-10.05,3.24-3.29,10.21-2.94,10.91-1.57,1.37,2.7-3.8,1.34-7.3,2.49,17.65,16.64,39.84,24.13,63.57,20.55,16.79-2.53,30.66-12.49,40.56-26.09-2.76-1.69-5.34.54-7.17-.84-2.68-2.01,5.37-3.8,9.85-1.07,3.93,2.39,5.76,10.54,3.43,11.24-2.76.83-.78-4.72-3.88-7.94-25.51,37.9-77.65,35.93-108.58,5.83-2.24,3.03-.5,6.9-2.19,7.45Z"/>
  <path class="cls-26" d="M243.78,233.92c-2.13.52-3.63,1.31-4.52,2.54-1.18,1.64-1.47,3.76-.72,5.72,2.08,5.43,9.56,6.39,6.29,8.23-.62.35-1.05.26-1.99-.09-6.06-2.33-9.56-8.93-6.42-14.86,1.97-3.72,6.32-4.8,10.31-4.64,6.17.26,10.89,4.3,10.18,8.38-.09.5-1.79.7-2.01.16-1.8-4.48-6.2-6.63-11.13-5.44Z"/>
  <path class="cls-26" d="M261.91,286.02c-11.49,5.08-25.42,2.01-26-.72-.15-.71.78-1.87,1.76-1.46,7.3,3.06,15.62,2.98,22.81-.37.83-.39,1.54-.06,1.94.38.47.53.46,1.74-.51,2.17Z"/>
  <path class="cls-2" d="M217.88,246.68c-13.38-11-33.46-12.63-47.6-2.87-.78.54-1.9.33-2.24-.25-.26-.46-.28-1.73.42-2.11l6.76-3.7c-9.77-13.83-8.66-32.43,4.12-43.31l-2.98-2.16c-.58-.42-.74-1-.91-1.33-.29-.54.68-2.09,1.38-1.63l22.99,15.27c9.44,6.27,19.42,10.72,29.73,15.96-.36,8.79-4.1,17.14-11.26,22.32.41,1.43,2.23,1.85,2.43,3.21.11.76-.23,1.41-.97,1.49-.82.08-1.12-.27-1.87-.88Z"/>
  <path class="cls-18" d="M187.17,220.04c-.26,1.78.19,3.12.44,4.68l-14.86,1.81c-2.34-8.54-1.19-17.51,3.76-24.81l5.4-5.55,10.43,6.84c-1.85,2.66-3.21,5.08-4.14,8.09l12.89,6.86-13.92,2.07Z"/>
  <path class="cls-18" d="M215.51,241.37c-11.43-7.01-24.72-8.76-37.42-4.73-1.94-2.18-3.12-4.53-4.23-7.47,16.74-2.77,33.31-2,49.64,3.15-1.75,3.59-4.2,6.48-7.99,9.05Z"/>
  <path class="cls-5" d="M224.74,229.76l-7.25-2.16c1.62-2.61,2.49-4.97,2.64-8.12l6.25,2.56c.23,2.68-.57,5.03-1.65,7.72Z"/>
  <path class="cls-2" d="M319.16,243.88c-15.49-10.11-34.63-8.27-48.29,3.35-.83.71-2.47-.42-2.3-1.28.27-1.3,1.44-1.82,2.77-2.72-5.26-3.71-8.57-8.9-10.49-14.98-.83-2.62-1.54-5.09-.84-8.01,10.6-4.76,20.77-9.96,30.51-16.52l20.38-13.71c.77-.52,1.49-.99,2.36-.3.57.45.68,1.54-.36,2.29l-3.22,2.33c12.54,10.21,14.17,29.76,4.32,43.03l6.26,3.68c.78.46,1.18,1.39.95,2.15-.2.66-1.19,1.25-2.06.68Z"/>
  <path class="cls-18" d="M302.45,220.03l-14.67-2.11,11.54-5.98c.63-.33,1.25-.63,1.37-1.21.13-.64-.12-1.25-.48-1.9l-3.18-5.73,10.11-6.99c9.58,7.14,12.02,19.05,9.3,30.53l-14.29-1.7c-.61-1.56.12-2.99.3-4.92Z"/>
  <path class="cls-18" d="M310.99,236.69c-12.77-4.37-26.02-2.12-37.41,4.78-3.35-2.36-5.72-5.27-7.94-8.91,15.43-5.77,33.54-5.97,49.58-3.49-1.06,2.96-2.21,5.14-4.23,7.61Z"/>
  <path class="cls-5" d="M271.84,227.68l-7.49,2.09c-.96-2.34-1.84-4.57-1.84-7.47l6.35-2.8c.54,3.14,1,5.65,2.98,8.18Z"/>
  <polyline class="cls-2" points="244.74 202.85 243.69 219.61 247.5 219.85 248.54 203.09"/>
  <path class="cls-7" d="M277.81,224.21c1.36,0,2.46-1.1,2.46-2.46s-1.1-2.46-2.46-2.46-2.46,1.1-2.46,2.46,1.1,2.46,2.46,2.46Z"/>
  <path class="cls-7" d="M211.14,224.21c1.36,0,2.46-1.1,2.46-2.46s-1.1-2.46-2.46-2.46-2.46,1.1-2.46,2.46,1.1,2.46,2.46,2.46Z"/>
  <polygon class="cls-2" points="324.54 176.43 260.1 216.59 256.46 210.75 315.47 161.86 324.54 176.43"/>
  <polygon class="cls-2" points="159.39 193.35 232.05 215.41 234.05 208.82 164.37 176.93 159.39 193.35"/>
  <path class="cls-19" d="M372.03,280.63c-3.61-22.04-18.45-25.72-21.88-26.29.06,1.89-.02,3.79-.14,5.68,2.6,2.71,13.36,14.75,9.11,24.9-4.81,11.5-17.03,11.21-17.03,11.21,0,0-5.11,22.39.81,21.77,5.93-.63,33.21-12.31,29.13-37.27Z"/>
  <path class="cls-11" d="M372.03,280.63l1.88-.31c-1.85-11.42-6.74-18.35-11.68-22.37-4.94-4.03-9.84-5.17-11.77-5.49l-2.29-.37.07,2.32c.01.42.02.85.02,1.28,0,1.39-.07,2.79-.16,4.22l-.05.84.58.61c1.03,1.07,3.48,3.77,5.62,7.19,2.16,3.42,3.95,7.56,3.94,11.36,0,1.47-.25,2.9-.83,4.29-2.08,4.94-5.55,7.36-8.74,8.68-3.18,1.3-6.06,1.36-6.44,1.36h-.04s-1.56-.04-1.56-.04l-.35,1.52c0,.07-2.08,9.04-2.1,15.83,0,1.91.15,3.65.68,5.17.27.76.65,1.49,1.3,2.1.64.62,1.61,1.02,2.55,1.01l.44-.02c1.76-.2,4.35-.99,7.53-2.42,4.73-2.15,10.58-5.72,15.33-10.95,4.75-5.22,8.39-12.18,8.39-20.81,0-1.71-.14-3.47-.44-5.3l-1.88.31-1.88.31c.27,1.63.39,3.19.39,4.68,0,10.01-5.55,17.4-11.98,22.51-3.2,2.54-6.6,4.47-9.5,5.78-2.88,1.31-5.36,2.01-6.36,2.1h-.04s0,0,0,0l-.03.18.09-.15-.06-.02-.03.18.09-.15-.02.04.03-.03h0s-.02.03-.02.03l.03-.03s-.33-.41-.5-1.24c-.18-.82-.28-1.97-.28-3.26,0-3.02.49-6.81,1-9.79.25-1.5.5-2.8.69-3.72.19-.92.31-1.46.31-1.46l-1.86-.42-.05,1.91h.13c.69,0,4.01-.07,7.88-1.64,3.86-1.55,8.32-4.73,10.83-10.74.79-1.89,1.13-3.85,1.13-5.76-.02-4.97-2.18-9.63-4.52-13.39-2.36-3.75-4.96-6.61-6.11-7.81l-1.37,1.32,1.9.12c.1-1.47.17-2.96.17-4.47,0-.46,0-.93-.02-1.4l-1.91.06-.31,1.88c1.5.24,5.74,1.22,9.98,4.68,4.23,3.47,8.58,9.4,10.33,20.03l1.88-.31Z"/>
  <path class="cls-14" d="M343.33,299.71s2.9,4.64,5.59,8.57c2.16,3.15,8.1,2.89,11.86.51,0,0-11.33,6.11-14.79,7.2,0,0-.73-10.64-3.24-16.19l.58-.09Z"/>
  <path class="cls-22" d="M156.09,292.14s-10.49-4.18-14.66,2.52c-4.17,6.7-3.83,22.93.59,30.55,4.42,7.62,13.87,1.13,13.87,1.13,0,0,6.36,3.19,12.28.3,5.92-2.89,6.23,7.45,2.25,10.5-3.97,3.05-4.11,12.96,4.24,13.92,8.35.97,18.94-9.8,13.8-22.61,0,0,4.53-1.72,6.79-7.25,2.26-5.53-.35-9.65-.35-9.65,0,0,2.97-.7,3.68-5.43.71-4.73-1.28-6.84-1.28-6.84,0,0,4.32-8.87-4.6-13.42-8.92-4.56-16.08.54-16.76,2.26,0,0-2.94-2.21-9.5-.82-6.56,1.39-10.34,4.86-10.34,4.86Z"/>
  <path class="cls-11" d="M156.09,292.14l.35-.89c-.06-.02-3.36-1.35-7.17-1.35-3.03-.01-6.56.9-8.65,4.26-2.13,3.45-3.07,8.86-3.08,14.49,0,6.27,1.19,12.77,3.65,17.04,1.77,3.11,4.54,4.21,7.06,4.18,4.29-.03,8.1-2.72,8.17-2.75l-.54-.79-.43.85c.07.03,3.19,1.6,7.25,1.61,1.84,0,3.88-.33,5.88-1.31.62-.3,1.11-.41,1.48-.41.67.02,1.05.28,1.45.9.38.62.61,1.62.6,2.72.02,2.16-.89,4.65-2.27,5.67-1.96,1.53-2.99,4.21-3,6.95,0,1.94.54,3.94,1.8,5.56,1.26,1.62,3.25,2.81,5.91,3.12.39.04.78.07,1.17.07,3.63,0,7.36-1.85,10.21-4.85,2.85-3,4.83-7.22,4.84-12.04,0-2.26-.44-4.65-1.42-7.1l-.89.35.34.89c.12-.05,4.92-1.89,7.34-7.78.73-1.79.99-3.46.99-4.91,0-3.36-1.36-5.51-1.42-5.61l-.81.51.22.93c.11-.03,1.01-.26,2-1.17.99-.91,2.02-2.5,2.4-5.05.11-.76.16-1.46.16-2.11,0-3.64-1.58-5.42-1.7-5.53l-.69.65.86.42c.03-.07,1.13-2.32,1.14-5.29.04-3.05-1.32-6.97-6.17-9.41-2.76-1.41-5.39-1.95-7.74-1.95-2.81,0-5.2.77-6.97,1.71-.89.47-1.62.98-2.18,1.48-.56.51-.96.96-1.19,1.51l.89.35.57-.76c-.13-.1-2.05-1.47-5.98-1.47-1.23,0-2.66.13-4.3.48-6.81,1.44-10.71,5.02-10.79,5.09l.64.7.35-.89-.35.89.64.7.14-.12c.74-.62,4.22-3.34,9.75-4.5,1.51-.32,2.8-.44,3.9-.44,1.74,0,2.98.3,3.77.58.39.14.68.28.85.38l.18.11.03.02.12-.17-.13.17h0s.12-.17.12-.17l-.13.17,1,.75.46-1.16c0-.05.25-.42.69-.79,1.31-1.17,4.2-2.72,7.88-2.71,2.06,0,4.37.47,6.87,1.74,4.22,2.19,5.09,5.14,5.13,7.71,0,1.24-.24,2.37-.48,3.18-.12.41-.24.73-.33.95l-.1.25-.03.07-.29.59.45.48.2-.18-.2.18h0s.2-.18.2-.18l-.2.18c.04.06,1.18,1.35,1.18,4.23,0,.55-.04,1.16-.14,1.82-.33,2.18-1.14,3.31-1.81,3.93l-.87.6-.24.1-.05.02.06.22-.05-.22h-.01s.06.22.06.22l-.05-.22-1.3.31.72,1.13.03.05c.19.33,1.09,2.06,1.09,4.53,0,1.23-.22,2.64-.85,4.19-1.06,2.59-2.64,4.27-3.95,5.31-.66.52-1.25.88-1.67,1.11l-.48.24-.15.06-.91.35.36.9c.89,2.23,1.28,4.37,1.28,6.39,0,4.29-1.76,8.04-4.31,10.73-2.54,2.69-5.86,4.26-8.83,4.25l-.95-.05c-2.23-.27-3.67-1.18-4.63-2.39-.95-1.22-1.4-2.8-1.4-4.39-.01-2.25.93-4.44,2.26-5.44,2.08-1.64,3-4.56,3.02-7.18,0-1.35-.25-2.64-.87-3.69-.59-1.05-1.71-1.86-3.09-1.84-.73,0-1.51.21-2.32.6-1.69.83-3.43,1.11-5.04,1.11-1.78,0-3.4-.36-4.56-.71-.58-.18-1.05-.36-1.37-.49l-.36-.16-.11-.05-.5-.25-.46.32-.14.09c-.7.46-3.92,2.34-6.95,2.32-2.04-.03-3.91-.7-5.41-3.23-2.2-3.76-3.41-10.07-3.4-16.09-.01-5.4.98-10.6,2.79-13.48,1.62-2.61,4.31-3.34,7.03-3.36,1.68,0,3.32.3,4.52.61.6.15,1.1.31,1.44.42l.51.18.56.22.44-.4-.64-.7Z"/>
  <path class="cls-22" d="M177.68,286.17c-.3.38-1.71,2.28-1.4,4.94.36,3.07,2.72,4.67,3.05,4.89"/>
  <path class="cls-11" d="M176.93,285.58c-.32.41-1.64,2.17-1.64,4.76l.05.87c.43,3.54,3.07,5.3,3.48,5.57l1.04-1.6c-.26-.16-2.34-1.6-2.63-4.2l-.04-.65c0-1.92,1.02-3.31,1.24-3.59l-1.51-1.17Z"/>
  <path class="cls-11" d="M198.11,298.43c-1.38-1.31-4-3.43-7.79-4.32-1.32-.31-2.52-.41-3.52-.41-1.11,0-1.98.12-2.47.2-1.94.32-4.76.76-6.88,3.2-2.07,2.4-2.16,5.15-2.16,5.93v.04c.03,3.8,2.34,6.14,2.82,6.62l1.34-1.36c-.36-.35-2.24-2.29-2.25-5.26v-.04c0-.6.1-2.85,1.7-4.68,1.61-1.86,3.78-2.25,5.75-2.57.43-.07,1.19-.18,2.17-.18.88,0,1.93.08,3.08.36,3.32.78,5.67,2.66,6.91,3.84l1.31-1.38Z"/>
  <path class="cls-11" d="M195.87,310.6c-2.23-1.5-6.53-3.93-12.07-3.93-.34,0-.68,0-1.03.03-2.27.14-5.89.26-8.23,3.11-1.58,1.98-1.78,4.34-1.78,5.9,0,.4.01.75.03,1.03.06,1.28.11,3.78,1.7,5.85,1.61,2.08,4.32,3.07,7.28,3.07,1.4,0,2.87-.22,4.34-.67l-.56-1.82c-1.3.4-2.59.59-3.79.59-2.55,0-4.65-.87-5.77-2.33-1.14-1.45-1.27-3.51-1.31-4.76-.01-.28-.02-.6-.02-.95,0-1.4.21-3.29,1.36-4.7,1.61-2.05,4.54-2.29,6.85-2.4l.93-.03c4.96,0,8.93,2.2,11,3.6l1.07-1.58Z"/>
  <path class="cls-11" d="M155.31,291.6c-1.73,2.51-4.02,6.58-5.02,12-.35,1.89-.5,3.71-.5,5.45,0,8.96,3.95,15.68,5.29,17.8l1.61-1.02c-1.26-2-5-8.4-5-16.78,0-1.63.14-3.33.47-5.1.94-5.08,3.08-8.9,4.72-11.27l-1.57-1.08Z"/>
  <path class="cls-11" d="M173.87,309.62c-.33-.36-2.55-2.74-6.4-2.95h-.5c-3.04-.01-4.99,1.45-5.4,1.77-.41.33-.49.93-.16,1.34.33.41.93.49,1.34.16.27-.21,1.8-1.38,4.22-1.38h.4c3.06.16,4.9,2.13,5.09,2.33.35.39.96.42,1.35.07s.42-.96.07-1.35Z"/>
  <path class="cls-11" d="M170.79,296.81c-.12.25-1.37,2.64-4.27,3.61-.86.29-1.66.39-2.35.39-1.33,0-2.25-.37-2.47-.46-.49-.2-1.04.03-1.25.52s.03,1.04.52,1.25c.33.14,1.53.61,3.2.6.87,0,1.88-.13,2.96-.49,3.65-1.24,5.15-4.14,5.37-4.57.23-.47.04-1.04-.43-1.28-.47-.23-1.04-.04-1.28.43Z"/>
  <path class="cls-22" d="M330.68,290.75s10.49-4.18,14.66,2.52c4.17,6.7,3.83,22.93-.59,30.55-4.42,7.62-13.87,1.13-13.87,1.13,0,0-6.36,3.19-12.28.3-5.92-2.89-6.23,7.45-2.25,10.5,3.97,3.05,4.11,12.96-4.24,13.92-8.35.97-18.94-9.8-13.8-22.61,0,0-4.53-1.72-6.79-7.25-2.26-5.53.35-9.65.35-9.65,0,0-2.97-.7-3.68-5.43-.71-4.73,1.28-6.84,1.28-6.84,0,0-4.32-8.87,4.6-13.42,8.92-4.56,16.08.54,16.76,2.26,0,0,2.94-2.21,9.5-.82,6.56,1.39,10.34,4.86,10.34,4.86Z"/>
  <path class="cls-11" d="M330.68,290.75l.35.89.51-.18c1.02-.34,3.43-1.04,5.95-1.04,2.72.01,5.4.75,7.03,3.36,1.81,2.88,2.8,8.08,2.79,13.48,0,6.02-1.2,12.32-3.4,16.09-1.5,2.53-3.37,3.2-5.41,3.23-1.73,0-3.53-.59-4.88-1.2-.67-.31-1.24-.61-1.63-.84l-.45-.27-.14-.09-.46-.32-.5.25-.11.05c-.55.26-3.17,1.36-6.29,1.36-1.61,0-3.35-.29-5.04-1.11-.81-.4-1.58-.6-2.32-.6-1.37-.02-2.49.79-3.09,1.84-.62,1.05-.86,2.34-.87,3.69.02,2.63.94,5.55,3.02,7.18,1.33,1,2.27,3.19,2.26,5.44,0,1.59-.45,3.17-1.4,4.39-.96,1.22-2.4,2.13-4.63,2.39l-.95.05c-2.97,0-6.28-1.56-8.83-4.25-2.55-2.69-4.31-6.44-4.31-10.73,0-2.02.39-4.16,1.28-6.39l.36-.9-.91-.35-.15-.06c-.78-.35-4.26-2.14-6.1-6.66-.63-1.55-.85-2.97-.85-4.19,0-1.41.29-2.58.58-3.39.14-.4.29-.71.39-.92l.12-.23.03-.05.72-1.13-1.3-.31-.05.22.06-.22h-.01s-.05.22-.05.22l.06-.22c-.11-.07-2.33-.6-2.96-4.65-.1-.67-.14-1.28-.14-1.82,0-1.54.33-2.62.63-3.31.15-.34.3-.59.41-.74l.12-.16.02-.03-.2-.18.2.19h0s-.2-.19-.2-.19l.2.19.45-.48-.29-.59-.03-.07c-.17-.38-.92-2.21-.92-4.38.04-2.57.91-5.52,5.13-7.71,2.5-1.27,4.82-1.74,6.87-1.74,2.46,0,4.55.68,6.08,1.49.76.4,1.37.84,1.81,1.23.43.37.68.74.69.79l.46,1.16,1-.75-.13-.17.12.17h0s-.13-.17-.13-.17l.12.17c.07-.05,1.58-1.09,4.84-1.09,1.1,0,2.39.12,3.9.44,3.16.67,5.65,1.84,7.34,2.84.85.5,1.49.96,1.92,1.28l.48.38.14.12.44.4.56-.22-.35-.89.64-.7c-.08-.07-3.98-3.64-10.79-5.09-1.63-.35-3.06-.48-4.3-.48-3.93,0-5.85,1.37-5.98,1.47l.57.76.89-.35c-.23-.55-.63-1-1.19-1.51-1.68-1.48-4.92-3.18-9.15-3.19-2.35,0-4.98.54-7.74,1.95-4.85,2.44-6.21,6.35-6.17,9.41,0,2.97,1.11,5.21,1.14,5.29l.86-.42-.69-.65c-.12.12-1.7,1.9-1.7,5.53,0,.64.05,1.35.16,2.11.38,2.55,1.41,4.14,2.4,5.05.99.91,1.89,1.14,2,1.17l.22-.93-.81-.51c-.05.09-1.41,2.25-1.42,5.61,0,1.45.26,3.12.99,4.91,2.42,5.9,7.22,7.74,7.34,7.78l.34-.89-.89-.35c-.98,2.44-1.42,4.83-1.42,7.1,0,4.82,1.98,9.04,4.84,12.04,2.85,3,6.58,4.84,10.21,4.85.39,0,.78-.02,1.17-.07,2.66-.3,4.66-1.49,5.91-3.12,1.26-1.62,1.8-3.62,1.8-5.56-.01-2.74-1.05-5.42-3-6.95-1.38-1.02-2.29-3.51-2.27-5.67,0-1.1.23-2.1.6-2.72.4-.63.78-.88,1.45-.9.37,0,.86.11,1.48.41,2,.98,4.04,1.31,5.88,1.31,4.06,0,7.17-1.58,7.25-1.61l-.43-.85-.54.79c.08.03,3.88,2.72,8.17,2.75,2.52.03,5.29-1.07,7.06-4.18,2.46-4.27,3.64-10.77,3.65-17.04-.01-5.63-.95-11.04-3.08-14.49-2.09-3.36-5.62-4.27-8.65-4.26-3.81,0-7.11,1.34-7.17,1.35l.35.89.64-.7-.64.7Z"/>
  <path class="cls-22" d="M309.1,284.78c.3.38,1.71,2.28,1.4,4.94-.36,3.07-2.72,4.67-3.05,4.89"/>
  <path class="cls-11" d="M308.34,285.36c.22.28,1.25,1.67,1.24,3.59l-.04.65c-.29,2.6-2.36,4.03-2.63,4.2l1.04,1.6c.41-.28,3.05-2.04,3.48-5.57l.05-.87c0-2.59-1.33-4.35-1.64-4.76l-1.51,1.17Z"/>
  <path class="cls-11" d="M289.98,298.42c1.24-1.18,3.6-3.07,6.91-3.84,1.15-.27,2.2-.36,3.08-.36.98,0,1.73.11,2.17.18,1.97.32,4.14.71,5.75,2.57,1.6,1.83,1.7,4.08,1.7,4.68v.04c0,2.97-1.89,4.91-2.25,5.26l1.34,1.36c.48-.47,2.79-2.82,2.82-6.61v-.05c0-.79-.09-3.53-2.16-5.93-2.12-2.44-4.94-2.88-6.88-3.2-.49-.08-1.36-.2-2.48-.2-1,0-2.2.1-3.52.41-3.79.89-6.41,3.01-7.79,4.32l1.31,1.38Z"/>
  <path class="cls-11" d="M291.97,310.79c2.07-1.4,6.04-3.61,11-3.6l.93.03c2.3.11,5.24.36,6.85,2.4,1.15,1.42,1.37,3.3,1.36,4.7,0,.36-.01.68-.02.95-.04,1.26-.17,3.31-1.31,4.77-1.12,1.46-3.22,2.33-5.77,2.33-1.2,0-2.49-.19-3.79-.59l-.56,1.82c1.47.45,2.94.67,4.34.67,2.96,0,5.67-1,7.28-3.07,1.59-2.08,1.64-4.58,1.7-5.86.01-.28.03-.63.03-1.03,0-1.57-.2-3.92-1.78-5.9-2.34-2.86-5.96-2.97-8.23-3.11-.35-.02-.69-.03-1.03-.03-5.53,0-9.84,2.43-12.07,3.93l1.07,1.58Z"/>
  <path class="cls-11" d="M329.9,291.29c1.63,2.36,3.78,6.18,4.72,11.27.33,1.77.47,3.47.47,5.1,0,8.39-3.73,14.79-5,16.78l1.61,1.02c1.34-2.13,5.29-8.85,5.29-17.8,0-1.74-.15-3.56-.5-5.45-1-5.43-3.29-9.49-5.02-12l-1.57,1.08Z"/>
  <path class="cls-11" d="M314.32,309.51c.18-.21,2.03-2.17,5.09-2.32h.4c2.42-.01,3.95,1.16,4.22,1.37.41.33,1.01.25,1.34-.16.33-.41.25-1.01-.16-1.34-.41-.32-2.36-1.78-5.4-1.79h-.5c-3.85.22-6.07,2.61-6.4,2.96-.35.39-.32.99.07,1.35s.99.32,1.35-.07Z"/>
  <path class="cls-11" d="M314.28,296.27c.22.43,1.72,3.32,5.37,4.57,1.08.36,2.08.49,2.96.49,1.68,0,2.87-.47,3.2-.61.49-.2.72-.76.52-1.25s-.76-.72-1.25-.52c-.22.09-1.15.46-2.47.46-.69,0-1.48-.1-2.35-.39-2.9-.97-4.15-3.36-4.27-3.61-.23-.47-.81-.66-1.28-.43-.47.23-.66.81-.43,1.28Z"/>
  <path class="cls-11" d="M247.51,339.67l.57-.18.1-.04.1-.04.15-.09.18-.03.13-.02.09-.04.31-.09.33-.06.27-.14.15-.07.4-.11.56-.18.59-.18.6-.2.22-.06.42-.1.39-.16.28-.08.23-.13.18-.08.31-.19.22-.29.07-.15.07-.15.12-.33.06-.31v-.19s-.04-.19-.04-.19l-.13-.34-.16-.34-.32-.14-.44-.11h-.1s-.25-.03-.25-.03l-.28-.02-.23-.04-.23.07-.15.04-.38.17-.08.06-.12.06-.06.04h-.1s-.29.15-.29.15l-.29.12-.5.2-.39.14-.42.25-.15.14-.14.14-.28.05-.19.02-.37.11-.35.15-.83.33h-.39s-.47-.02-.47-.02l-.06.02-.28-.18-.05-.18-.06-.21-.07-.24-.17-.84-.2-.6-.09-.5-.18-.47-.15-.61-.22-.6-.04-.25-.05-.18.1-.24.22-.18.38-.24.39-.2.4-.21.4-.21.17-.09.5-.23.48-.21.48-.22.64-.28.61-.3.78-.38.76-.28.75-.31.99-.41.97-.34.22-.1.21-.12.38-.35.29-.43.1-.22v-.26s.04-.18.04-.18l.03-.14-.09-.5-.09-.5c-.11-.4-.35-.67-.71-.79l-.48-.08-.49.02-.69.36-.36.25-.37.22-.69.29-.69.29-.54.18-.53.21-.09.02-.69.34-.63.46c-.73.61-1.53,1.18-2.42,1.69l-.4.23-.45.14-.23.13-.19.12-.07.22h-.03s-.17,0-.17,0l-.17-.61-.32-.57-.09-.3v-.3s.01-.13.01-.13l-.06-.17-.06-.13-.11-.28-.1-.25-.21-.52-.24-.51-.11-.17-.08-.18-.03-.39-.07-.31-.17-.25.04-.21.2-.12.26-.12.23-.12.37-.21.38-.16.2-.09.57-.27.57-.25.5-.2.51-.17.5-.22.51-.16.85-.3.82-.29.29-.09.25-.09.28-.13.3-.06.23-.05.23-.08.36-.12.37-.08.31-.06.29-.11.22-.06.6-.17.56-.29.39-.7.09-.26-.05-.37-.04-.33-.06-.21-.14-.26-.13-.23-.21-.17-.39-.15-.41-.12-.42.05-.42.18-.46.19-.43.17-.45.21-.22.11-.22.08-.51.16-.51.19-.23.1-.25.07-.23.06-.22.09-.4.16-.44.14-.7.2-.4.21-.22.11-.25.09c-.45.12-.9.26-1.36.41-.46.15-.93.28-1.4.39l-1.89.53-.46.36-.3.22-.18.08-.09.02-.13.1-.47.2-.13.1-.03.24.12.2-.06.25-.05.04-.05.05.04.27-.04.32v.16s.09.28.09.28l.12.29.27.38.38.29.31.31.19.34.3.71.03.09.09.1.1.13v.16s.27.57.27.57l.24.38.1.3.13.29.04.15.07.14.12.36.14.32.13.41.09.38.05.3.05.3.24.85.04.22.09.24.08.04.06.26.03.27.08.16v.18s.01.05.01.05v.05l.13.58.19.31.1.46v.36s.18.69.18.69l.21.68-.02.27-.07.59-.04.68.14.57.23.54.07.13.07.13.05.12.02.13.17.38.16.22.25.3.38.19.4.02h.07s.4-.04.4-.04l.4-.14.06-.03.06-.04.29-.09.3-.03.25-.04.55-.27ZM239.36,342.51l.28-.28.16-.24.17-.21.02-.04v-.07s.05-.16.05-.16v-.12s.02-.33.02-.33l-.1-.29-.12-.25-.36-.69-.35-.69-.27-.62-.26-.58-.23-.53-.2-.54-.1-.23-.05-.13-.04-.1-.39-1.04-.28-.66-.25-.67-.06-.12-.28-.7-.28-.69-.04-.12-.12-.27-.1-.29-.09-.31-.12-.29-.14-.33-.11-.33-.15-.5-.18-.46-.17-.43-.1-.42-.06-.12-.28-.69-.25-.71-.09-.2-.05-.12-.04-.12-.25-.55-.29-.55-.5-.61-.19-.08-.27-.07-.29-.06-.09.02-.15.18-.26.14-.12.26-.02.06h-.06s-.28,0-.28,0l-.2.4-.03.24-.07.22v.13s.05.28.05.28l.14.26.11.04.11.17v.08s.02.11.02.11l.02.19.12.43.25.62.23.66.27.8.25.84.21.58.22.61.13.33.09.34-.16.24-.44.11-.48.11-.6.19-.61.15-.61.19-.61.15-.07.04-.1.04-.2.07-.2.04-.37.1-.39.12-.39.13-.23.05-.26.09-.19.04h-.19s-.25-.16-.25-.16v-.06s-.16-.48-.16-.48l-.18-.45-.09-.2-.07-.24-.2-.45-.2-.42c-.15-.39-.34-.76-.57-1.09l-.73-.95-.44-.53-.32-.21-.35-.13-.36-.03-.55.15-.07.09-.23.1-.15.07-.14.19-.11.21-.12.26-.06.51.16.58.22.3.27.37.26.34.39.64.3.67.27.61.13.28.09.28.05.18.08.18.17.45.15.48.08.27.26.58.23.59.36.95.19.42.18.43.51,1.14.24.57.23.54.23.46.16.35.25.29.04.02.16.17.18.13.19.08.18.15.11.04.87-.18.09-.04.06-.03.5-.43.23-.69v-.13s.02-.14.02-.14v-.13s-.1-.37-.1-.37l-.15-.32-.06-.1-.05-.07-.25-.54-.26-.57-.3-.71-.19-.46-.18-.42-.1-.24v-.05s0-.05,0-.05l.1-.23.09-.03.59-.23.61-.17.42-.14.42-.16.17-.08.18-.05.32-.1.32-.1.13-.06h.11s.26-.07.26-.07l.22-.08.26-.09.23-.04.18-.08.31-.09.38-.07.34-.06.22-.03.26.12.18.42.16.46.18.41.32.76.3.77.18.41.18.41.41.89.44.88.07.18.07.18.04.2.07.19.18.16.18.16.24.17.22.07.56.11.52-.15.22-.16ZM220.23,347.09l.22-.16.19-.28.18-.31.06-.25-.02-.19-.04-.32.03-.31-.12-.2-.27-.25-.21-.39-.2-.39-.32-.68-.32-.66-.16-.33-.12-.32-.06-.13-.05-.13-.19-.44-.18-.41-.35-.89-.21-.45-.21-.45-.04-.15-.18-.39-.18-.4-.25-.54-.28-.53-.35-.79-.4-.74-.06-.11-.31-.7-.34-.69-.11-.22-.08-.22-.28-.65-.29-.56-.28-.53-.45-.89-.09-.31.07-.22.26-.1.64-.24.61-.24.21-.08.21-.07.28-.11.25-.1.26-.07.25-.1.18.05.37.03.29-.24.31-.28.21-.13.22-.09.45-.39.13-.23.09-.16.1-.12.03-.27-.03-.3v-.28s-.1-.37-.1-.37l-.29-.33-.34-.28-.18-.1-.2-.06-.58-.02-.54.23-.5.32-.53.23-.64.24-.64.24-1.1.41-.12.06-.26.11-.3.11-.52.2-.52.2-.12.03-.53.21-.53.21-.94.36-.89.38-.42.2-.45.21-1.54.72-.45.26-.77.77c-.22.39-.29.82-.19,1.3l.28.66.39.59.72.82c.25.28.42.59.52.94l.11.46.16.51.26.91.14.39.17.38.34.39.51.06.34-.56-.05-.54-.11-.58-.08-.58-.13-.69-.12-.66-.06-.58v-.3s.19-.38.19-.38l.25-.33.66-.81.44-.42.19-.18.2-.16.08-.05.25.06.05.05.49.65.44.7.06.11.34.52.31.52.33.59.31.64,1.02,1.88.28.53.26.57.27.57.23.54.56,1.29.18.34.15.36.32.66.33.7.03.06.04.09.28.58.28.58.35.77.29.82.04.07.04.1.23.36.47.36.2.08.22.04.84-.17.2-.09Z"/>
  <path class="cls-11" d="M282.96,346.51l-.18-.34-.1-.35-.13-.34-.07-.18-.03-.19-.2-.9-.23-.89-.37-1.31-.06-.28-.03-.26v-.73s.23-.68.23-.68l.07-.09.21-.06.16.09.1.12.1.12.43.49.38.53.48.66.65.92.57,1.01.19.39.1.42-.08.55-.48.5-.63.39-.64.33-.06.02-.39.07ZM285.27,357.33l.1-.09.26-.42.15-.45.16-.28.03-.11v-.24s-.1-.22-.1-.22l-.14-.27-.13-.24-.4-.74-.25-.53-.18-.54-.07-.19-.07-.19-.14-.34-.12-.35-.13-.47-.16-.47-.08-.17-.05-.18v-.05s0-.05,0-.05l.1-.13.22.07.36.1.32.11c.63.2,1.25.39,1.87.58.62.19,1.23.38,1.84.59l.51.14.48.15.72.23.7.3c.51.18.95.42,1.32.72l.4.27.42.2.58.07.39-.07.4-.04.2-.09.26-.29.18-.36.08-.18.04-.34-.03-.19-.04-.19c-.18-.48-.47-.81-.87-1.01l-.12-.07-.26-.11-.24-.15c-.36-.27-.75-.49-1.17-.66-.48-.21-.97-.4-1.47-.56-.51-.16-1.01-.31-1.51-.45l-.84-.29-.86-.26-.21-.04-.29-.1-.32-.09-.99-.35-.05-.07.02-.05.43-.34.4-.32.11-.13.11-.13.38-.5.23-.36.12-.4.13-.61.06-.63-.03-.53-.13-.53-.15-.5-.25-.47-.05-.12-.08-.11-.51-.9-.63-.83-.25-.29-.91-1.16-.72-.88-.8-.83-.57-.43-.6-.32-.23-.08-.22-.12-.45.03-.19.15-.16.06-.16.09-.74.66-.14.2-.29.43-.22.44-.14.38-.18.36-.2.22-.22.22-.24.26-.13.25-.09.27v.13s.02.19.02.19l.02.19.05.18.09.27.1.3.1.37.03.35.05.76.08.75.09.63.16.65.05.18.02.19.15.7.21.68.07.27.12.3.13.42.04.45v.13s.24.72.24.72l.24.38.15.43.27.86.24.87.06.22.09.2.13.38.11.38.23.64.26.63.27.62.46.81.51.79.37.39.44.3c.32.22.67.25,1.05.1l.14-.1ZM268.68,361.48l.57-.18.1-.04.1-.04.15-.09.17-.03h.13s.09-.06.09-.06l.31-.09.33-.06.27-.14.15-.07.39-.11.56-.17.59-.18.6-.2.22-.06.41-.1.4-.16.28-.08.23-.13.18-.08.31-.19.22-.29.07-.15.07-.15.12-.33.06-.31v-.2s-.04-.19-.04-.19l-.13-.34-.16-.34-.32-.14-.44-.11h-.1s-.26-.03-.26-.03l-.28-.02-.22-.04-.23.06-.15.04-.38.17-.08.06-.12.06-.06.03h-.1s-.29.15-.29.15l-.3.12-.5.21-.39.14-.42.25-.14.14-.14.14-.28.05-.19.02-.37.12-.35.15-.83.33h-.39s-.47-.02-.47-.02l-.06.02-.28-.18-.05-.18-.06-.22-.07-.24-.17-.84-.2-.6-.09-.5-.18-.47-.15-.61-.22-.6-.04-.25-.05-.18.1-.24.22-.18.38-.23.39-.2.4-.21.4-.21.18-.08.5-.23.48-.22.48-.22.64-.28.61-.3.78-.38.76-.28.76-.31.99-.41.97-.34.22-.09.21-.12.38-.35.29-.43.1-.23v-.26s.04-.18.04-.18l.03-.14-.09-.5-.09-.5c-.11-.41-.35-.67-.71-.79l-.48-.08-.49.02-.69.36-.36.25-.37.22-.69.29-.69.29-.54.18-.53.21-.09.03-.69.34-.63.46c-.73.62-1.53,1.18-2.42,1.69l-.39.23-.45.14-.23.13-.2.12-.07.22h-.03s-.17-.01-.17-.01l-.17-.61-.32-.57-.08-.31v-.3s.01-.13.01-.13l-.06-.16-.05-.13-.11-.28-.1-.25-.21-.52-.24-.51-.11-.17-.08-.17-.03-.39-.07-.31-.17-.25.04-.21.19-.12.26-.12.23-.12.37-.21.38-.16.2-.09.57-.27.57-.24.5-.21.51-.17.5-.22.51-.16.85-.3.82-.3.28-.09.26-.09.28-.13.29-.07.23-.05.22-.08.36-.12.37-.09.31-.05.29-.12.21-.06.6-.17.56-.29.39-.7.09-.26-.05-.37-.04-.33-.06-.21-.14-.26-.13-.23-.21-.17-.39-.16-.41-.12-.41.05-.42.18-.45.19-.43.17-.45.21-.22.11-.23.08-.51.16-.51.19-.23.1-.24.07-.23.06-.22.09-.39.16-.44.14-.7.2-.4.21-.22.11-.25.09c-.45.12-.91.26-1.37.41-.46.15-.93.28-1.4.39l-1.89.53-.46.36-.3.22-.18.08-.09.03-.13.1-.47.2-.13.1-.03.24.12.19-.06.25-.05.04-.05.05.04.27-.04.32v.16s.09.28.09.28l.11.29.27.38.38.29.32.31.19.34.29.71.03.09.1.1.1.13v.16s.27.57.27.57l.23.38.1.3.13.29.04.15.07.14.12.36.14.32.13.41.09.38.05.3.05.3.24.85.04.21.08.24.08.04.06.26.03.27.08.16v.18s.01.05.01.05v.05l.13.59.19.31.1.47v.36l.18.69.21.68-.02.27-.07.59-.04.68.14.57.23.54.07.13.07.13.05.12.02.13.17.38.16.22.25.29.38.19.4.02h.07s.4-.03.4-.03l.4-.14.06-.03.06-.03.29-.1.3-.03.25-.04.55-.27ZM254.67,365.18l.22-.21.14-.25.21-.19.04-.08-.04-.15.07-.22.05-.05.05-.18-.21-.4-.32-.63-.32-.63-.25-.54-.22-.55-.03-.19-.07-.18-.22-.55-.19-.55-.04-.09v-.06s-.26-.95-.26-.95l-.11-.46-.13-.42-.1-.3-.09-.27-.07-.32-.07-.29-.44-1.59-.09-.31-.11-.26-.08-.17-.05-.18-.16-.81-.02-.14v-.18s-.24-.85-.24-.85l-.2-.59-.17-.59-.03-.09.13-.23.11-.06,1.17-.52.88-.38.92-.36.15-.04.38-.15.36-.12,1.29-.45.29-.21.2-.26.04-.08.07-.17.03-.19.06-.48-.09-.53-.12-.21-.12-.18-.2-.24-.42-.21-.3-.08h-.32s-.48.1-.48.1l-.47.15-.48.2-.49.2-.59.23-.58.26-.77.31-.76.34-.96.43-1,.41-.07.04h-.11s-.38.08-.38.08l-.34.2-.07.05-.1.06-1.57.73-.8.41-.79.46-.29.15-.29.15-.27.19-.32.17-.13.1-.12.23-.12.2-.2.52v.55s.14.41.14.41l.22.38.09.07.4.25.44.14.37.03.41-.13.4-.16.5-.32.5-.32,1.27-.75.13-.05.13-.05.23.13.91,3.26.64,2.42.15.45.18.47.14.4.15.4.22.78.27.73v.06s.41,1.07.41,1.07l.56,1.29.25.5.31.46.5.72.05.05.06-.02.15-.04.18.16.17.14.15.05.19-.02.72-.26ZM240.2,370.92l.51-.27.78-.61.28-.23.23-.28.19-.25.2-.22.24-.31.24-.31.36-.48.32-.5.53-.88.42-.92.2-.73.15-.72.05-.72-.12-.71-.02-.19c-.07-.35-.23-.7-.46-1.05l-.58-.69-.52-.45-.56-.37-.83-.44-.88-.4c-.38-.16-.75-.31-1.12-.46-.37-.15-.74-.29-1.1-.43l-.78-.31-.78-.34-1.21-.55c-.44-.18-.9-.43-1.36-.74l-.85-.63-.73-.77-1.16-1.68-.08-.18.06-.28.15-.12.12-.12.28-.18.19-.05.16-.11.84-.63.56-.25.21-.12.2-.05.22-.04.17-.1.27-.11.32-.04.28-.06.32-.02.32-.02.33.13.18.15.2.24-.07.22.22.2.42.08.18-.05.12-.16.1-.09c.38-.06.65-.23.82-.49.3-.35.42-.75.35-1.22l-.04-.2-.04-.2-.12-.61-.32-.52-.15-.18-.42-.31-.54-.16-.56-.13-.77-.03-.75.12-.57.19-.58.16-.31.09c-1,.43-1.94.92-2.84,1.48l-.67.4-.57.54-.09.06-.53.57-.48.66-.23.69.03.81.18.64.13.23.31.58.32.62.25.37.23.41.26.41.3.42.56.67.58.63.14.14.13.12.26.15.23.2.37.21.34.22.5.25.46.22.48.18.45.2.42.21.83.39.62.3.65.26.22.07c.37.14.73.28,1.08.42.36.14.72.29,1.1.45l.44.21.44.24.25.16.19.21.16.22.14.6-.12.64-.41.9-.51.87c-.25.37-.56.76-.93,1.14l-.16.18-.2.18-.73.34-1.33.18-.35.02-.35.05h-.08s-.1.05-.1.05l-.28.16-.27.23-.1.09-.1.12-.15.34-.18.38v.59l.16.28.16.28.74.52h.92s.87-.13.87-.13l.84-.1.54-.06.58-.16ZM230.69,372.05l.3-.34.05-.18.08-.42.02-.17-.06-.2-.09-.19-.31-.64-.25-.65-.07-.11-.12-.31-.12-.31-.09-.34-.12-.33-.1-.28-.09-.25-.13-.46-.18-.41-.05-.13-.04-.1-.05-.18-.08-.18-.1-.25-.07-.26-.2-.65-.22-.61-.48-1.38-.13-.41-.16-.4-.11-.3-.17-.61-.05-.18-.08-.17-.12-.31-.09-.32-.23-.72-.26-.69-.15-.38-.12-.36-.08-.17-.05-.18-.15-.37-.13-.41-.13-.47-.18-.42-.07-.24-.26-.5-.32-.48-.34-.17-.32-.03-.32.07-.09.05h-.13s-.13,0-.13,0l-.06.07-.09.11-.04.03-.04.03-.15.04-.1.1-.09.26-.05.06-.07.1-.09.52c.07.39.18.75.33,1.06l.33.83.28.75.23.72.04.09.05.12.26.68.26.72.14.44.18.46.51,1.5.1.32.14.31.09.21.2.53.2.54.16.42.14.45.14.49.23.61.18.63.11.29.12.3c.15.36.25.72.31,1.1l.07.24.07.21.07.21.08.28.22.5.2.53.16.35.16.35.23.13.14.03.18.13.2.09h.2s.24.04.24.04l.25-.04.52-.38ZM223.51,373.86l.17-.51.04-.51v-.15s.02-.15.02-.15v-.16s-.28-.6-.28-.6l-.29-.56-.41-.81-.29-.87-.1-.3-.09-.27-.33-1.01-.23-1-.11-.56-.2-.54-.09-.24-.05-.25-.05-.31-.08-.28-.13-.6-.13-.6-.02-.19-.2-.65-.16-.63-.37-1.34-.1-.42-.1-.41-.06-.22-.16-.5-.16-.5-.06-.23-.1-.22-.16-.39-.13-.41-.36-1.28-.17-.3-.28-.24-.11-.11-.15-.11-.06-.05-.09-.04-.29-.1-.28-.07-.19.02-.29.08-.27.14-.1.09-.28.41-.25.4-.07.22-.06.38.07.38.25.88.1.37.03.35.04.15.05.05.15.09.07.24.04.25.13.23.1.24.06.16.06.16.03.23.11.26.15.29.09.31.23.83h.03s.23.81.23.81l.06.2.02.2.06.4.09.39.06.25.04.22.04.34.04.33.09.31.2,1.09-.05.05h-.03s-.57-.62-.57-.62l-.15-.2-.19-.19-.57-.58-.54-.59-2.48-2.76-.19-.21-.19-.21c-.68-.71-1.38-1.32-2.09-1.85l-.53-.38-.49-.35-.44-.5-.35-.56c-.31-.39-.7-.57-1.17-.53l-.25.04-.25.04-.19.09-.18.12-.06.03-.06.03-.02.04-.08.2-.15.16-.13.23-.07.32-.05.18.02.37.06.39.26.94.06.22.03.22.04.35.09.37.07.31.07.31.03.28.07.31,3.11,11.16.05.3.05.3.09.4.1.4.16.35.19.31.31.28.27.14.24.15.15.06.6.03.32-.07.26-.19.32-.55.07-.64.06-.25.07-.18-.04-.19-.26-.95-.09-.3-.15-.29-.08-.17.05-.05.05.05.04.02.02-.04-.23-.83-.1-.13-.12-.2-.03-.22c-.01-.43-.1-.82-.25-1.14l-.13-.69-.05-.18-.18-.64-.04-.27-.13-.24-.08-.41-.08-.4-.03-.29-.08-.24c-.14-.27-.24-.59-.3-.97l-.11-.39-.24-.85-.17-.84v-.07s.11,0,.11,0l.51.52.34.38.34.38.49.52.47.56.18.15c.31.35.63.69.94,1.03.32.34.63.69.95,1.04l1.18,1.28.56.59.59.58.2.19.21.22.65.69.66.72.41.41.56.48.57.52.23.13.55.1h.22s.22.01.22.01c.5-.03.83-.25,1-.67ZM207.37,378.56l.3-.34.05-.18.08-.42.02-.17-.06-.2-.09-.19-.31-.64-.25-.65-.07-.11-.12-.31-.12-.31-.09-.34-.12-.33-.1-.29-.09-.25-.13-.46-.18-.41-.05-.13-.05-.1-.05-.18-.08-.17-.1-.25-.07-.26-.2-.65-.22-.61-.48-1.38-.13-.41-.16-.4-.12-.3-.17-.61-.05-.18-.08-.18-.12-.31-.09-.32-.23-.72-.26-.69-.16-.38-.12-.36-.08-.18-.05-.18-.15-.37-.13-.41-.13-.47-.19-.42-.07-.24-.25-.51-.32-.48-.34-.17-.32-.03-.32.08-.09.05h-.13s-.13,0-.13,0l-.06.07-.09.1-.04.03-.04.03-.15.04-.1.09-.09.26-.05.06-.07.1-.09.52c.07.39.18.75.33,1.06l.33.83.28.74.23.72.04.09.05.12.26.68.26.72.14.44.18.46.51,1.5.1.32.13.31.09.21.2.54.2.54.17.41.14.45.13.49.23.61.18.63.12.29.12.3c.14.36.24.72.31,1.1l.07.24.07.21.08.21.07.28.22.5.2.53.16.35.16.35.23.13.14.03.18.13.2.09h.2s.24.04.24.04l.25-.04.52-.37ZM191.89,380.03h-.11s-.23.03-.23.03v-.21s.12-.42.12-.42l.1-.19.03-.18-.05-.28v-.29s-.05-.35-.05-.35l-.12-.1-.07-.37v-.36s-.09-.24-.09-.24l-.14-.22-.25-.43-.1-.37-.07-.24-.1-.23-.09-.22-.06-.23v-.26s-.09-.17-.09-.17l-.08-.04-.02-.19.04-.04.04-.04.19-.15c.54-.33,1.09-.61,1.64-.85.55-.24,1.1-.42,1.65-.56l.49-.14.54-.06.31.15.19.19.15.21.6.8.52.86.06.1.06.1.04.15-.09.75c-.2.39-.45.72-.74,1l-.82.7-.81.74-1.04.88c-.36.28-.72.49-1.07.66l-.2.09-.18.05h-.08ZM188.83,370.88l-.04-.02-.03-.12-.07-.48-.03-.09-.06-.08-.08.06h-.07s-.13-.26-.13-.26l-.1-.25-.07-.15-.12-.33v-.15s-.07-.09-.07-.09l-.02-.06-.1-.23-.13-.13-.2-.44-.13-.42-.04-.02-.23-.59-.17-.61-.13-.48-.02-.29.32-.51.43-.27.4-.26.47-.23.47-.2.54-.18.58-.16c.33-.09.7-.1,1.11-.04l.37.26.18.54c.06.36.07.68.04.97l-.12.64-.16.62c-.1.36-.22.7-.37,1.04l-.47,1-.37.61-.42.56-.29.33-.25.32-.29.14-.05.05-.03.02h-.03ZM192.92,386.39l-.03-.34-.09-.32-.3-1.07-.04-.25-.05-.23v-.24s.02-.34.02-.34c.13-.39.37-.66.72-.83l.21-.12.21-.12.88-.61.84-.63.8-.65.83-.69.28-.24.28-.24.88-.87.36-.43.34-.39c.23-.26.44-.59.61-.99l.15-.4.06-.84-.04-.37-.04-.37-.11-.39-.31-.74-.49-.82-.54-.77-.14-.21-.17-.2-.41-.52-.43-.49-.24-.26-.32-.31-.4-.15-.42-.11-.2-.05h-.18s-.88.02-.88.02l-.88.13-.45.13-.08-.04v-.06s.25-.47.25-.47l.17-.33.17-.33.28-.69.26-.68c.14-.35.23-.69.27-1.03l.08-.71.02-.7-.04-.73-.1-.71-.04-.15-.16-.45-.18-.41-.31-.53c-.19-.39-.47-.67-.83-.86l-.47-.28-.5-.14-.46-.06h-.47s-.61.06-.61.06h-.2s-.18-.06-.18-.06l-.28-.05-.31-.04-.22-.04-.22-.04-.18.05-.31.31-.27.21-.27.08-.51.14-.48.2-.31.09c-.37.1-.72.24-1.07.4-.53.24-1.04.51-1.54.83l-.87.53-.58.34-.39.55-.1.23-.1.69c.14.73.48,1.33,1.02,1.78l.61.78.22.49.19.49.18.35.16.38.15.4.15.41.12.25.12.24.19.31.11.23.09.24.31.57.28.61.03.12.19.37.15.39.07.14.07.15.25.44.2.49.03.04.03.07.39.93.33.94.15.29.28.64.07.18.1.17.13.26.17.61.05.36.05.37.09.33.27.5.32.45.07.28-.04.14-.04.14-.05.54.11.39.19.56.34.51v.03s.26.31.26.31l.27.27.16.12.22.33.18.41.05.18.08.18.06.13.05.13.2.5.21.53.02.06.57.4.25-.04.34-.69Z"/>
  <path class="cls-10" d="M308.28,373.44c-.67,1.62-1.34,2.38-2.32,2.63-.57.15-.98-.22-1.23-1.2-.11-.44-.14-1.01.03-1.34.74-1.44-.82-2.66-2.15-1.68-.13.09-.42.22-.82.32-.41.1-.91-.04-1.37-.37-1.79-1.25-3.73,1.35-1.8,2.5.62.37.84.55.35,1.48-.4.75.12,2.27,1.49,1.93.39-.1.64-.34.85-.67.5-.74.59-1.56.58-2.21l.15-.02.12.7c.55,2.19,2.16,3.5,4.08,3.2l.58,2.28.37.22.22-.37-.57-2.27.72-.28.93,3.71.38.18.25-.34-.98-3.87c1.15-.76,1.92-1.96,2.57-3.52.34-.83-.31-2.1-1.55-1.79-.42.11-.73.38-.88.77ZM294.02,376.64c-.09-.35-.09-.68-.06-.94.07-.43.27-.72.58-.8l.42.26c.1.47-.12.86-.94,1.48ZM299,375.76c-.8,1.58-1.64,2.05-2.49,2.26l-.09.02c1.06-1.07,1.44-2.22,1.11-3.52-.4-1.59-1.95-2.61-3.63-2.19-1.9.48-3.05,2.53-2.43,4.99.24.96.87,1.83,1.69,2.42l.6,2.38.37.22.22-.37-.45-1.77c.96.48,2.15.66,3.25.38.52-.13,1.1-.32,1.67-.67l.27,1.05.37.22.22-.37-.32-1.27c.69-.54,1.37-1.35,2-2.59.5-1.03-.42-2.15-1.51-1.87-.37.09-.68.34-.85.68ZM281.33,384.55l-.24-.12c-.06-.26.2-.7.86-.94,0,.59-.14.93-.62,1.06ZM281.94,387.12c2.21-.56,2.8-2.35,2.58-4.4.45-.18.91-.39,1.35-.66l.72,2.88.37.22.22-.37-.78-3.1.21-.15c.9.83,1.96,1.22,3.35.92l.6,2.36.37.22.22-.37-.6-2.38c1.35-.5,2.14-1.64,3.15-3.46.56-1.05-.38-2.2-1.49-1.93-.37.09-.68.35-.84.65-.82,1.5-1.3,2.15-1.88,2.3-1.22.31-2.07-1.21-2.96-3.75l.83-.21.54,2.14.37.22.22-.37-.54-2.14.13-.03.22-.07.44,1.74.37.22.22-.37-.53-2.09.11-.81c-.15-.61-.8-.97-1.39-.82l-1.7.42-.57-1.86c-.21-.69-.91-1.06-1.6-.89-.79.2-1.1.98-.93,1.67.15.57.35,1.17.52,1.74l-.11.03c-.46.12-.73.75-.6,1.29.14.55.64.84,1.19.84l.21-.03c.34.95.71,1.86,1.1,2.63-.34.3-.72.58-1.12.77-.16-.55-.34-1.03-.52-1.46-.81-1.87-1.77-2.6-2.94-2.3-1.09.27-2.41,2.2-4.09,5.02-.62,1.04.33,2.25,1.46,1.97.35-.09.65-.32.81-.6.93-1.53,1.66-2.62,2.09-3.24l.31.69.31.7-.29.09c-2,.64-2.93,2.56-2.52,4.17.21.85.82,1.48,1.57,1.8l.52,2.07.37.22.22-.37-.43-1.72.48.04.26,1.05.37.22.22-.37-.24-.96h.06ZM270.75,382.95c-.68.17-1.07-.2-1.33-1.23-.14-.56.01-1.12.6-1.27.52-.13.99.36,1.21,1.21.2.81-.11,1.2-.48,1.3ZM275.68,385.24c1.33-.34,2.13-1.28,2.87-2.41.6-.88-.12-2.34-1.41-2.02-.35.09-.61.29-.8.57-.48.73-.84,1.17-1.3,1.29-.46.12-.91-.32-1.22-.87.03-.42-.01-.77-.12-1.17-.48-1.92-2.26-3.28-4.33-2.76-2.01.51-3.01,2.53-2.52,4.49l.23.75-.45.7c-.55.85.1,2.35,1.43,2.02l.77-.53.03-.05c.75.4,1.6.5,2.54.26.59-.15,1.14-.47,1.55-.88l.91,3.62.38.17.25-.33-.75-2.98.84.2.58,2.31.37.22.22-.37-.54-2.16.49-.08ZM250.16,391.25c.51-.87,1.88-4.14,2.39-4.86l1.22,4.86.39.23.23-.39-1.13-4.49c.85.81,2.2,2.75,2.44,3.16.82,1.36,2.65.79,2.58-.76-.12-2.52.52-4.7.72-4.76.61-.15,2.91,3.76,5.94,3.73l.73,2.9.37.22.22-.37-.71-2.8.18-.04c1.2-.3,2.33-1.43,3.04-2.57.62-.96-.23-2.3-1.44-1.99l-.8.58c-.45.7-1.08,1.33-1.45,1.42-1.97.5-3.47-4.45-6.74-3.62-1.35.34-2.16,1.8-2.52,3.78-1.07-1.14-2.43-2.09-3.8-1.75-.89.22-1.64,1.14-2.25,2.2-.6-1.07-1.87-1.42-2.85-1.17-1.05.26-2.51,2.98-3.4,5.04l-.06.86c.18.7.89,1.13,1.6.95.42-.11.73-.38.89-.75.57-1.32,1.33-2.97,1.63-3.42.13.91.14,1.95.04,2.8-.08.63.09,1.06.38,1.36l1.21,4.8.39.23.23-.39-1.07-4.27c.51.07,1.06-.15,1.38-.68ZM230.6,392.61c-.09-.35-.09-.68-.06-.95.07-.43.27-.72.58-.79l.42.26c.09.47-.12.85-.94,1.48ZM235.58,391.72c-.8,1.58-1.64,2.04-2.49,2.26l-.09.02c1.07-1.07,1.44-2.22,1.12-3.52-.4-1.59-1.95-2.61-3.63-2.19-1.9.48-3.05,2.53-2.43,4.99.24.96.87,1.83,1.69,2.42l.6,2.38.37.23.22-.37-.45-1.77c.97.48,2.15.66,3.26.38.52-.13,1.1-.32,1.67-.67l.26,1.05.37.22.22-.37-.32-1.27c.69-.55,1.37-1.35,2-2.59.5-1.03-.42-2.15-1.51-1.87-.37.09-.68.35-.85.68ZM217.91,400.51l-.25-.12c-.06-.26.2-.69.86-.94,0,.58-.14.93-.62,1.06ZM218.52,403.08c2.21-.56,2.8-2.36,2.58-4.4.45-.18.9-.39,1.35-.66l.72,2.88.37.22.22-.37-.78-3.1.21-.15c.9.83,1.96,1.22,3.35.92l.59,2.36.37.22.22-.37-.6-2.38c1.35-.49,2.14-1.64,3.15-3.46.56-1.05-.38-2.21-1.48-1.93-.37.09-.68.35-.84.65-.82,1.5-1.3,2.15-1.88,2.3-1.22.31-2.07-1.21-2.96-3.75l.83-.21.54,2.14.37.22.22-.37-.54-2.14.13-.03.22-.08.44,1.74.37.22.22-.37-.53-2.09.11-.81c-.15-.61-.79-.97-1.39-.82l-1.7.42-.57-1.87c-.21-.69-.91-1.06-1.6-.89-.8.2-1.11.98-.93,1.67.15.57.35,1.17.52,1.74l-.11.03c-.46.12-.73.75-.6,1.29.14.55.64.83,1.19.84l.21-.03c.34.95.71,1.86,1.1,2.63-.34.3-.72.59-1.12.77-.16-.55-.34-1.03-.52-1.46-.81-1.87-1.77-2.6-2.94-2.3-1.09.27-2.41,2.2-4.09,5.02-.62,1.04.33,2.25,1.45,1.97.35-.09.65-.32.81-.6.93-1.53,1.66-2.62,2.09-3.24l.31.69.32.7-.29.09c-2,.64-2.93,2.56-2.52,4.17.21.85.82,1.48,1.57,1.8l.52,2.07.37.22.22-.37-.43-1.72.48.04.26,1.05.37.22.22-.37-.24-.96h.06ZM207.33,398.92c-.68.17-1.07-.2-1.33-1.24-.14-.56.01-1.12.6-1.27.52-.13.99.35,1.21,1.2.2.81-.11,1.21-.48,1.3ZM212.26,401.21c1.33-.34,2.13-1.28,2.87-2.41.6-.88-.12-2.34-1.41-2.02-.35.09-.61.29-.8.57-.48.73-.84,1.17-1.31,1.29s-.9-.32-1.22-.87c.03-.42-.02-.76-.12-1.17-.48-1.92-2.26-3.28-4.33-2.76-2.01.51-3.02,2.53-2.52,4.49l.23.75-.45.7c-.55.85.1,2.35,1.43,2.02l.77-.53.03-.04c.75.4,1.6.5,2.54.26.59-.15,1.14-.47,1.55-.88l.91,3.62.38.18.25-.33-.75-2.98.84.2.58,2.31.37.22.22-.37-.54-2.16.49-.08ZM203.22,399.75c-.5.73-1.24,1.61-1.58,1.69l-.18.05c-.01-.51-.07-.96-.16-1.35-.31-1.22-1.44-1.76-2.55-1.48-1.31.33-2.54,1.66-2.2,3.03.18.7.83,1.36,1.72,1.83-.01.65-.23,1.17-.92,1.34-.35.09-.47-.06-1.02-2.24-.55-2.18-3.4-1.67-3.21.32.2,1.81.04,2.82-.16,2.87-.28.07-.65-.23-.74-.6-.36-1.42-.65-3.2-.84-3.95-.2-.81-.94-1.41-1.87-1.18-.87.22-1.99,2.44-2.77,4.03-.39.86.26,2.11,1.48,1.81.42-.11.74-.4.88-.77l.25-.65.3,1.36c.09.37.23.71.46,1.04l1.1,4.39.39.23.23-.39-.83-3.29c.75.54,1.64.76,2.59.53.88-.22,1.48-.76,1.82-1.5.6.58,1.35.78,2.27.61l1.13,4.5.39.23.23-.39-1.13-4.5c1.41-.49,2.3-1.78,2.74-3.15.43,0,.83-.07,1.23-.17,1.16-.29,2.37-1.6,3.15-2.77.59-.92-.14-2.36-1.44-2.03l-.78.55Z"/>
  <path class="cls-14" d="M141.68,301.18s-2.84,4.68-5.53,8.61c-2.16,3.16-9.2,2.13-13.92-.92,0,0,14.12,8.05,18.33,9.66,0,0-.46-11.47,1.81-17.18l-.7-.17Z"/>
  <path class="cls-14" d="M141.68,301.18s-2.84,4.68-5.53,8.61c-2.16,3.16-9.2,2.13-13.92-.92,0,0,14.12,8.05,18.33,9.66,0,0-.46-11.47,1.81-17.18l-.7-.17Z"/>
  <path class="cls-14" d="M141.68,301.18s-2.84,4.68-5.53,8.61c-2.16,3.16-9.2,2.13-13.92-.92,0,0,14.12,8.05,18.33,9.66,0,0-.46-11.47,1.81-17.18l-.7-.17Z"/>
  <path class="cls-14" d="M141.68,301.18s-2.84,4.68-5.53,8.61c-2.16,3.16-9.2,2.13-13.92-.92,0,0,14.12,8.05,18.33,9.66,0,0-.46-11.47,1.81-17.18l-.7-.17Z"/>
  <path class="cls-14" d="M141.68,301.18s-2.84,4.68-5.53,8.61c-2.16,3.16-9.2,2.13-13.92-.92,0,0,14.12,8.05,18.33,9.66,0,0-.46-11.47,1.81-17.18l-.7-.17Z"/>
</svg>