<?xml version="1.0" encoding="UTF-8"?>
<svg id="Layer_1" xmlns="http://www.w3.org/2000/svg" version="1.1" viewBox="0 0 397.7 284.4">
  <!-- Generator: Adobe Illustrator 30.5.1, SVG Export Plug-In . SVG Version: 2.1.4 Build 3)  -->
  <defs>
    <style>
      .st0 {
        fill: #ffc50a;
      }

      .st1 {
        fill: #fff;
      }
    </style>
  </defs>
  <path class="st1" d="M354.6,237.8h19.8v-83.2c0-1.6.6-2.4,1.6-2.4s1.8.8,1.8,2.4v83.2h19.9v-88.6c0-9.7-5-15.3-13.7-15.3s-12.3,4.2-13.4,11.4h-.3v-.2c-.4-6.2-3.7-10.2-11.2-10.2h-4.5v102.8ZM327.8,220.6c-1,0-1.7-.8-1.7-2.5-.2-10.2-.2-21.4-.2-31.7l.2-31.7c0-1.6.7-2.4,1.7-2.4s1.7.8,1.7,2.4l.2,31.7c0,10.3,0,21.5-.2,31.7,0,1.7-.7,2.5-1.7,2.5ZM327.9,238.8c14.7,0,20.6-6.5,21.3-20.8.4-9.1.4-21.5.4-31.6s0-22.2-.4-31.6c-.8-15.1-6.6-20.8-21.3-20.8s-20.7,5.7-21.4,20.8c-.5,9.4-.5,21.5-.5,31.6s0,22.5.5,31.6c.7,14.4,6.5,20.8,21.4,20.8ZM278.4,219.9h-.9v-67h.9c1.6,0,2.6.9,2.6,2.5l.2,31c0,10.3,0,20.7-.2,31.1,0,1.6-1,2.4-2.6,2.4ZM257.7,237.8h21.7c14.7,0,20.6-6.3,21.3-20.4.4-9,.4-21.1.4-31.1s0-21.7-.4-31c-.8-14.9-6.6-20.4-21.3-20.4h-21.7v102.8ZM229.9,219.9h-.9v-67h.9c1.6,0,2.6.9,2.6,2.5l.2,31c0,10.3,0,20.7-.2,31.1,0,1.6-1,2.4-2.6,2.4ZM209.2,237.8h21.7c14.7,0,20.6-6.3,21.3-20.4.4-9,.4-21.1.4-31.1s0-21.7-.4-31c-.8-14.9-6.6-20.4-21.3-20.4h-21.7v102.8ZM184.2,174.5h-3.6v-19.9c0-1.6.8-2.4,1.8-2.4s1.6.8,1.6,2.4l.2,19.9h0ZM182.5,238.8c14.7,0,20.6-6.5,21.3-20.8.2-4.5.3-9.7.3-15.2h-19.9l-.2,15.3c0,1.7-.6,2.5-1.6,2.5s-1.8-.8-1.8-2.5c-.2-8-.2-16.4-.2-24.5h23.4c.3-13.4.3-27.5-.2-38.8-.8-15.1-6.6-20.8-21.3-20.8s-20.7,5.7-21.4,20.8c-.5,9.4-.5,21.5-.5,31.6s0,22.5.5,31.6c.7,14.4,6.6,20.8,21.4,20.8h0ZM134.6,167.7c-1.1,0-1.7-.8-1.7-2.5v-7.6c0,0,0-7,0-7,0-1.4.6-2.4,1.7-2.4s1.7.9,1.7,2.4v7c0,0,0,7.6,0,7.6,0,1.7-.6,2.5-1.7,2.5ZM134.6,223.7c-1.1,0-1.7-.9-1.7-2.5v-9.1c0,0,0-9.1,0-9.1,0-1.6.6-2.5,1.7-2.5s1.7.9,1.7,2.5v9.1c0,0,0,9.1,0,9.1,0,1.6-.6,2.5-1.7,2.5ZM134.4,238.8c12.6,0,20.4-6,21.5-16.5.2-3.1.4-7,.4-10.2s-.2-7.2-.4-10.3c-1.1-10.6-9.6-16-20.6-16.6-2.2,0-2.8-.7-2.8-1.9s1-1.8,2.8-1.9c11-.6,19.6-5.7,20.6-15.6.2-2.4.4-5.5.4-8.2s-.2-5.9-.4-8.5c-.3-3.3-1.7-6.4-3.9-8.5,3.2-1.3,5.2-4.1,5.6-7.8l.8-5.2h-17.2l-.5,7c-1.9-.4-3.9-.6-6.2-.6-12.4,0-20.1,5.5-21.2,15.1-.2,2.6-.4,5.9-.4,8.5s.2,5.8.4,8.2c.5,4.8,2.5,8.6,6,11.2-3.4,1.4-5.3,3.9-5.3,6.9s1.4,5.2,4.3,6.8c-2.8,2.7-4.5,6.4-5,11.1-.2,3.1-.4,7-.4,10.3s.2,7.1.4,10.2c1,10.4,8.7,16.5,21.2,16.5h0ZM86.7,220.6c-1.2,0-1.7-.8-1.8-2.5,0-2.2-.2-5.7-.2-10.2s0-8.2.2-11.8c.2-2.1.5-2.9,2.6-4.1l.9-.5v26.6c0,1.5-.6,2.5-1.8,2.5h0ZM78.5,238.8c7.6,0,12.6-4.7,13.8-12.9h.4v.2c0,7,3.1,11.8,11.2,11.8h4.4v-79.9c0-16.8-6.3-23.9-21.4-23.9s-21.5,7.1-21.5,23.9v12.9h19.7v-16.2c0-1.6.6-2.4,1.8-2.4s1.6.8,1.6,2.4v18l-13.1,7.6c-6.1,3.5-9.1,9.1-9.8,16.6-.3,2.8-.6,8.5-.6,14.4s.2,12.2.6,14.9c.8,8.2,5.5,12.8,12.9,12.8h0ZM2.2,237.8h16.9l-.4-55.2h.5l.5,9.2,3.9,46h14.6l4.4-46,.7-9.2h.5l-.4,55.2h16.9v-102.8h-22.9l-4.5,40.5-1.2,12h-.5l-1.2-12-5.1-40.6H2.2v102.8h0Z"/>
  <path class="st1" d="M298,56.3h-3.6v-19.9c0-1.6.8-2.4,1.8-2.4s1.6.8,1.6,2.4l.2,19.9h0ZM296.2,120.6c14.7,0,20.6-6.5,21.3-20.8.2-4.4.3-9.7.3-15.2h-19.9l-.2,15.3c0,1.7-.6,2.5-1.6,2.5s-1.8-.8-1.8-2.5c-.2-8-.2-16.4-.2-24.5h23.4c.3-13.4.3-27.5-.2-38.8-.8-15.1-6.6-20.8-21.3-20.8s-20.7,5.7-21.4,20.8c-.5,9.4-.5,21.5-.5,31.6s0,22.5.5,31.6c.7,14.4,6.5,20.8,21.4,20.8h0ZM248.3,49.5c-1.1,0-1.7-.8-1.7-2.5v-7.6c0,0,0-7.1,0-7.1,0-1.4.6-2.4,1.7-2.4s1.7.9,1.7,2.4v7.1c0,0,0,7.6,0,7.6,0,1.7-.6,2.5-1.7,2.5ZM248.3,105.5c-1.1,0-1.7-.9-1.7-2.5v-9.1c0,0,0-9.1,0-9.1,0-1.6.6-2.5,1.7-2.5s1.7.9,1.7,2.5v9.1c0,0,0,9.1,0,9.1,0,1.6-.6,2.5-1.7,2.5h0ZM248.1,120.6c12.6,0,20.4-6,21.5-16.4.2-3.1.4-7.1.4-10.2s-.2-7.2-.4-10.3c-1.1-10.6-9.6-16-20.6-16.6-2.2,0-2.8-.7-2.8-1.9s1-1.8,2.8-1.9c11-.6,19.6-5.7,20.6-15.6.2-2.4.4-5.5.4-8.2s-.2-5.9-.4-8.5c-.3-3.3-1.7-6.4-4-8.5,3.2-1.3,5.2-4.1,5.6-7.8l.8-5.2h-17.2l-.5,7c-1.9-.4-4-.6-6.2-.6-12.4,0-20.1,5.5-21.2,15.1-.2,2.6-.4,5.9-.4,8.5s.2,5.8.4,8.2c.5,4.8,2.5,8.6,6,11.2-3.4,1.4-5.3,3.9-5.3,6.9s1.4,5.2,4.3,6.8c-2.8,2.7-4.5,6.4-5,11.1-.2,3.1-.4,7.1-.4,10.3s.2,7.1.4,10.2c1,10.4,8.7,16.4,21.2,16.4h0ZM199.7,101.7h-.9V34.7h.9c1.6,0,2.6.9,2.6,2.5l.2,31c0,10.3,0,20.7-.2,31.1,0,1.6-1,2.4-2.6,2.4h0ZM179,119.6h21.7c14.7,0,20.6-6.3,21.3-20.4.4-9,.4-21.1.4-31.1s0-21.7-.4-31c-.8-14.9-6.6-20.4-21.3-20.4h-21.7v102.8h0ZM153.7,13.4h20.2V0h-20.2v13.4ZM153.9,119.6h19.8V16.8h-19.8v102.8ZM120.2,119.6h19.8V49.2c0-4.7,1.8-6.3,5-6.3s2.6,0,4.4.4v-26.9c-.7-.2-1.6-.2-2.5-.2-6.4,0-10.1,3.9-10.8,11h-.4c-.4-6.5-3.6-10.4-11.1-10.4h-4.4v102.8h0ZM82.2,119.6h19.8v-42.5h9.6v-18.2h-9.6v-23.9h13.9v-18.2h-33.8v102.8h0Z"/>
  <path class="st1" d="M347.8,69.5c-2.3,13.3-19,20-32.6,22.6-8.5-8.8-16.2-23.2-13.4-34.4,1.5-6.1,6.6-9.7,12-10,6.1-.4,10.9,3.3,13.2,9.7,4.9-2.7,11-3.2,15.9-.3,4.3,2.5,5.7,7.6,4.8,12.5h0Z"/>
  <path class="st0" d="M341.4,75.9c-5.8,6.6-14,10.1-22.2,11.9-3.7.8-7.3-5-9.9-9.3-3.3-5.3-4.7-10.6-4.3-17,.3-5.1,3.7-9.8,8.9-10.1,10.2-.5,9.9,9.5,11.6,10.1.4.2,1.5-.2,2.1-.7,5.1-3.6,12.8-3.6,16.4,2.1,2.5,3.9.6,9.3-2.6,12.9h0Z"/>
  <path class="st0" d="M91.9,63.2c.2-.4.4-.7.6-1-1.9.3-3.9.8-5.8,1.2-1.9.4-3.9.9-5.8,1.2l-4.2.7,1-2.6h0c.1-.3.3-.7.5-1.3.2-.6.5-1.4.7-2.2.6-1.7,1.2-3.9,1.9-6.2,1.4-4.6,2.8-9.8,3.3-13.1h0c-.3.3-.6.7-1,1.2-.1.2-.3.5-.6.8-.2.4-.6.8-.9,1.2-.9,1.2-2,2.7-3.2,4.5-1.4,2.1-2.9,4.2-4.2,6.2s-2.5,3.7-3.2,4.7c-3.1,4.9-6.7,10.7-10.1,16.5-.3.4-.4.8-.5,1.1,3.3-.4,6.7-1,10.5-1.8l1.5-.3.4,1.5s0,.2,0,.4c0,.2,0,.4-.1.6s-.2.6-.3,1.1c-.3,1.1-.9,2.8-1.9,5.9-1,3-2.1,6.5-3.1,9.7-.7,2.2-1.3,4.3-1.8,5.8.5-.6,1.1-1.4,1.8-2.3,1.5-1.9,3.3-4.2,5.2-6.8,3.8-5.1,8.1-10.8,10.9-14.6,1.2-1.6,1.9-2.6,2.2-3,.1-.2.2-.3.2-.3h0c.7-.9,1.8-2.4,2.8-4.1s2.1-3.4,3-4.9h0Z"/>
  <path class="st1" d="M94.8,60.5h0c0,0-.2-.2-.3-.3-.2-.1-.4-.2-.6-.2h-.1c-2.4.4-5,.9-7.4,1.5-1.9.4-3.9.8-5.7,1.2h-.8c.1-.2.2-.5.4-1,.9-2.6,2.4-7.5,3.7-12.3.7-2.4,1.3-4.7,1.7-6.8.2-1,.4-2,.5-2.8.1-.8.2-1.5.2-2.1v-.9h-.9c0,0-.2,0-.2,0h-.4c0,0-.1,0-.1,0h0c-.6.3-1,.8-1.5,1.3-.4.5-.9,1.2-1.5,2h0s0,0,0,0c-.1.2-.3.4-.5.8-.2.3-.6.8-.9,1.2-.9,1.2-2,2.8-3.3,4.6-1.4,2.1-2.9,4.2-4.2,6.2-1.3,1.9-2.5,3.7-3.2,4.8-3.1,4.9-6.8,10.7-10.1,16.6-.7,1.2-.9,2-.9,2.6,0,.3,0,.6.2.8h0c0,.2.2.3.3.4.2.1.3.2.4.2h.3c0,0,0,0,0,0h0c3.4-.4,7.1-1,11-1.8-.2.8-.8,2.6-2.1,6.6-1,3-2.1,6.5-3.1,9.7-1,3.2-1.9,6-2.3,7.7-.1.5-.2.9-.2,1.2s0,.3,0,.4l.2.8h.9c.2-.1.3-.2.5-.2.4-.2.8-.4,1.2-.8h0c.3-.3.7-.8,1.3-1.5,1.9-2.3,5.2-6.6,8.6-11.1,3.4-4.6,7-9.4,9.4-12.7.8-1.1,1.3-1.8,1.7-2.4.2-.3.4-.5.5-.6.1-.1.2-.2.2-.3h0c1.1-1.4,2.6-3.6,4-5.9.7-1.1,1.4-2.3,1.9-3.3.6-1,1-1.9,1.3-2.6,0-.1.1-.3.1-.5,0-.3,0-.5-.2-.6h0ZM86.1,72.1c0,0-.1.2-.2.3-.4.5-1.1,1.4-2.2,3-2.8,3.8-7.1,9.6-10.9,14.6-1.9,2.5-3.7,4.9-5.2,6.8-.7.9-1.3,1.7-1.8,2.3.5-1.6,1.1-3.6,1.8-5.8,1-3.2,2.1-6.7,3.1-9.7,1-3.1,1.6-4.9,1.9-5.9.2-.5.3-.9.3-1.1,0-.2,0-.4.1-.6,0-.2,0-.3,0-.4l-.4-1.5-1.5.3c-3.8.8-7.2,1.4-10.5,1.8,0-.3.3-.6.5-1.1,3.3-5.9,7-11.6,10.1-16.5.7-1.1,1.8-2.8,3.2-4.7,1.3-1.9,2.8-4.1,4.2-6.2,1.2-1.8,2.4-3.4,3.2-4.5.4-.5.7-.9.9-1.2.2-.3.4-.6.6-.8.4-.5.7-1,1-1.3h0c-.6,3.3-1.9,8.5-3.3,13.1-.7,2.3-1.4,4.5-1.9,6.2-.3.9-.5,1.6-.7,2.2-.2.6-.4,1.1-.5,1.3h0s-1.1,2.7-1.1,2.7l4.2-.7c1.9-.3,3.9-.8,5.8-1.2,1.9-.4,3.9-.9,5.8-1.2-.2.3-.4.7-.6,1-.8,1.5-1.9,3.2-3,4.9s-2.1,3.1-2.8,4.1h0Z"/>
  <path class="st1" d="M393.1,284c1.3-.2,2.3-.5,2.9-1,.6-.5.9-1.2.9-2s-.1-1.3-.4-1.6-.6-.6-1-.7-.8-.1-1.2-.1h-4.3c-.5,0-.9-.1-1.1-.4-.2-.2-.3-.7-.3-1.3s0-1.1,0-2c0-.9,0-2,0-3.2s0-2.5,0-3.9,0-2.7,0-4,0-2.5,0-3.6c0-1.1,0-2,0-2.7,0-1.7-.2-3-.6-3.8-.4-.8-1.1-1.2-2.3-1.2s-1.8.3-2.3.9-.9,1.5-1.2,2.8c-.2,2.3-.4,4.5-.5,6.6s-.1,4.1-.1,5.8,0,2.7,0,4.3c0,1.6.1,3.1.3,4.6.1,1.5.3,2.8.4,4,.1.5.4.9.7,1.4.3.4.9.8,1.6,1,.7.3,1.8.4,3,.4,2.2,0,4-.1,5.3-.3h0ZM344.6,277.1c-1.2-.8-2.1-2-2.8-3.6s-1-3.3-1-5.4.3-3.8,1-5.3,1.6-2.5,2.8-3.3c1.2-.8,2.6-1.1,4.2-1.1s3,.4,4.2,1.1,2.2,1.9,2.9,3.3,1.1,3.2,1.1,5.3-.4,3.8-1,5.4c-.7,1.5-1.7,2.7-2.9,3.6-1.2.8-2.7,1.3-4.3,1.3s-3-.4-4.2-1.3h0ZM356.4,282.4c2.3-1.3,4.1-3.2,5.5-5.6,1.4-2.4,2-5.3,2-8.7s-.7-6.2-2-8.5c-1.4-2.3-3.2-4.1-5.5-5.3s-4.8-1.8-7.6-1.8-5.3.6-7.5,1.8-4,3-5.4,5.3-2,5.2-2,8.5.7,6.3,2,8.7c1.3,2.4,3.1,4.3,5.4,5.6s4.8,2,7.5,2,5.3-.7,7.6-2h0ZM297.6,277.1c-1.2-.8-2.1-2-2.8-3.6s-1-3.3-1-5.4.3-3.8,1-5.3,1.6-2.5,2.8-3.3c1.2-.8,2.6-1.1,4.2-1.1s3,.4,4.2,1.1,2.2,1.9,2.9,3.3,1.1,3.2,1.1,5.3-.4,3.8-1,5.4c-.7,1.5-1.7,2.7-2.9,3.6-1.2.8-2.7,1.3-4.3,1.3s-3-.4-4.2-1.3h0ZM309.4,282.4c2.3-1.3,4.1-3.2,5.5-5.6,1.4-2.4,2-5.3,2-8.7s-.7-6.2-2-8.5c-1.4-2.3-3.2-4.1-5.5-5.3s-4.8-1.8-7.6-1.8-5.3.6-7.5,1.8-4,3-5.4,5.3-2,5.2-2,8.5.7,6.3,2,8.7c1.3,2.4,3.1,4.3,5.4,5.6s4.8,2,7.5,2,5.3-.7,7.6-2h0ZM270.6,283.6c.6-.5.9-1.2.9-2.1s-.2-1.5-.5-1.9c-.4-.4-.9-.7-1.5-.9s-1.3-.4-2.1-.6c-.8-.2-1.6-.5-2.5-1-.9-.4-1.7-1-2.5-1.9-1.7-1.8-2.6-4.1-2.6-7s.9-5.4,2.7-7.2c1-1,2.1-1.8,3.2-2.2s2.1-.8,3.1-1c1-.2,1.7-.6,2.3-.9s.9-1,.9-2-.3-1.4-.8-1.8c-.5-.4-1.5-.6-2.8-.6s-3.2.3-5,1-3.4,1.6-4.9,2.9-2.8,3-3.7,5c-1,2-1.4,4.4-1.4,7.1s.5,5.1,1.4,7.1c.9,2,2.2,3.7,3.7,5s3.1,2.3,4.9,3,3.4,1,5,1,2-.3,2.5-.8h0ZM206.9,283.8c.5-.3.9-.7,1.1-1.4.3-.6.4-1.5.4-2.6s0-1.7,0-2.8,0-2.5,0-3.9,0-2.8,0-4.3c0-1.4,0-2.8,0-4.1s0-2.4,0-3.4,0-1.6,0-2,0-.8.3-1c.2-.2.5-.3.9-.3h3.2c.6,0,1.2-.2,1.7-.5.5-.4.8-1,.8-2s-.1-1.1-.4-1.5-.7-.7-1.4-.9-1.7-.4-3-.5c-1.3-.1-3.1-.1-5.4-.1s-4,0-5.3.1-2.4.3-3.1.5c-.7.2-1.2.5-1.4.9s-.3.9-.3,1.5c0,1,.3,1.7.8,2,.5.4,1.1.5,1.7.5h3.2c.4,0,.8,0,.9.3s.2.5.2,1v2c0,1,0,2.1,0,3.4s0,2.7,0,4.1,0,2.9,0,4.3c0,1.4,0,2.7,0,3.9v2.8c0,1.1.1,2,.4,2.6.3.6.7,1.1,1.2,1.4.5.3,1.1.4,1.8.4s1.3-.1,1.8-.4h0ZM176.9,282.7c.3-.5.4-1.3.6-2.4.1-1.1.2-2.6.3-4.6,0-2,0-4.5,0-7.6s0-5.5,0-7.4-.1-3.4-.3-4.5c-.1-1.1-.3-1.8-.5-2.2-.5-1-1.4-1.5-2.6-1.5s-2.1.5-2.6,1.5c-.2.5-.4,1.2-.5,2.3s-.2,2.5-.3,4.5-.1,4.4-.1,7.4,0,5.4.1,7.4c0,2,.2,3.6.3,4.7.1,1.1.3,1.9.5,2.4.5,1,1.4,1.5,2.6,1.5s2.1-.5,2.6-1.5h0ZM122.5,282.9c.6-.9.8-1.9.8-3.2v-5.3c0-.9,0-1.6.3-2.2.2-.5.5-1.2.9-1.9,1.3-2.3,2.4-4.2,3.3-5.8.9-1.6,1.7-3,2.2-4.1.6-1.1,1-2.1,1.3-2.8s.4-1.5.4-2.1,0-1-.2-1.5-.4-.9-.9-1.2c-.4-.3-1-.5-1.8-.5s-1.4.2-2,.7c-.6.5-1.2,1.2-1.8,2.3s-1.2,2.4-2,4.1c-.7,1.7-1.6,3.8-2.6,6.2-.1.3-.2.5-.3.6s-.2.2-.4.2l-.3-.2c0-.1-.2-.3-.4-.6-1-2.5-1.9-4.5-2.6-6.2s-1.4-3.1-1.9-4.1-1.1-1.8-1.7-2.3c-.6-.5-1.3-.7-2-.7s-1.3.1-1.7.5c-.4.3-.7.7-.9,1.2-.2.5-.3,1-.3,1.5s.1,1.3.4,2.1c.3.8.7,1.7,1.3,2.8.6,1.1,1.3,2.5,2.2,4.1s2,3.6,3.3,5.9c.4.7.7,1.3.9,1.8s.3,1.2.3,2.2v5.2c0,1.3.3,2.3.9,3.2.6.9,1.4,1.3,2.5,1.3s2.1-.4,2.6-1.3h0ZM80.4,269.2c-.4,0-.8,0-1.3,0-.4,0-.6-.1-.8-.2s-.2-.4-.2-.7c0-.5.1-1.2.4-2.1s.5-1.7.7-2.5c.4-1.4.8-2.5,1-3.1s.4-1.1.6-1.4c.2-.2.4-.3.6-.3s.5.1.7.3c.2.2.4.7.6,1.4.3.7.6,1.8,1,3.2.3,1,.6,1.9.8,2.7s.3,1.4.3,2,0,.5-.2.7-.4.2-.8.2c-.3,0-.6,0-1,0h-2.5ZM74.1,283.9c.4-.2.7-.6,1-1.1.3-.5.5-1.1.7-1.9.3-1.4.5-2.4.7-3.1.2-.7.3-1.3.4-1.7s.3-.8.4-1.1c.1-.3.3-.5.5-.6.2-.1.6-.2,1.1-.3.6,0,1.4,0,2.5,0s2.1,0,2.6,0c.5,0,.9.1,1.1.2s.4.3.5.5c.2.2.3.6.4,1,.1.4.3,1,.5,1.8.2.8.4,1.9.7,3.2.2.7.4,1.4.6,1.9.3.5.6.9,1,1.1.4.2.9.4,1.5.4s1.3-.1,1.8-.4.8-.6,1-1.1c.2-.5.3-1.1.3-1.9s-.1-2.4-.4-4.1c-.3-1.7-.7-3.6-1.2-5.7-.5-2.1-1.1-4.2-1.7-6.2-.7-2.4-1.4-4.4-2-6-.6-1.6-1.2-2.9-1.9-3.8-.7-1-1.4-1.6-2.2-2s-1.7-.6-2.7-.6-1.8.2-2.6.6c-.8.4-1.5,1-2.2,2-.7.9-1.3,2.2-2,3.8s-1.4,3.7-2.1,6.2c-.6,2-1.2,4.1-1.6,6.1-.5,2-.8,3.9-1.1,5.6-.3,1.7-.4,3.1-.4,4.2s.1,1.4.3,1.9c.2.5.6.9,1,1.1s1.1.4,1.8.4,1.1-.1,1.4-.4h0ZM49.4,284c1.3-.2,2.3-.5,2.9-1,.6-.5.9-1.2.9-2s-.2-1.3-.4-1.6-.6-.6-1-.7-.8-.1-1.2-.1h-4.3c-.6,0-.9-.1-1.1-.4s-.3-.7-.3-1.3,0-1.1,0-2c0-.9,0-2,0-3.2s0-2.5,0-3.9c0-1.3,0-2.7,0-4s0-2.5,0-3.6c0-1.1,0-2,0-2.7,0-1.7-.2-3-.6-3.8-.4-.8-1.2-1.2-2.3-1.2s-1.8.3-2.3.9-.9,1.5-1.2,2.8c-.2,2.3-.4,4.5-.5,6.6s-.1,4.1-.1,5.8,0,2.7,0,4.3.1,3.1.3,4.6c.1,1.5.3,2.8.4,4,.1.5.4.9.7,1.4.3.4.9.8,1.6,1,.7.3,1.8.4,3.1.4,2.2,0,4-.1,5.3-.3h0ZM6.7,266.9c-.2-.1-.3-.5-.4-1,0-.5,0-1.3,0-2.5s0-2.4,0-3.1c0-.7,0-1.3.2-1.6.1-.3.3-.5.5-.6s.5-.1.8-.1c2.4,0,4.1.3,5.1.9,1.1.6,1.6,1.7,1.6,3.4s-.5,2.9-1.6,3.6-2.8,1.2-5.2,1.2-.7,0-.9-.2h0ZM5.9,283.8c.4-.3.7-.6.8-1.1.2-.5.2-1,.2-1.5,0-1.2,0-2.2,0-3.1,0-.8,0-1.6,0-2.3,0-.7,0-1.5,0-2.3s0-.7.2-.9.4-.4.8-.4h1.5c2.4,0,4.4-.4,6.1-1.2s3-2,3.8-3.4,1.3-3.3,1.3-5.3-.4-3.9-1.4-5.3-2.3-2.5-4.1-3.2c-1.8-.7-4.1-1.1-6.8-1.1s-3.3.1-4.4.3-1.9.5-2.3,1c-.5.5-.8,1.2-.9,2-.3,2.2-.4,4.3-.5,6.5s0,4.1,0,6,0,3.8.2,6,.2,4.4.4,6.4c.2,1.3.6,2.2,1.2,2.7.6.5,1.4.8,2.5.8s1.3-.1,1.7-.4h0Z"/>
</svg>