<?xml version="1.0" encoding="UTF-8"?>
<svg id="Layer_1" data-name="Layer 1" xmlns="http://www.w3.org/2000/svg" viewBox="0 0 500 500">
  <defs>
    <style>
      .cls-1 {
        fill: #231f20;
      }

      .cls-2 {
        fill: #ffc50a;
      }

      .cls-3 {
        fill: #11111a;
      }
    </style>
  </defs>
  <path class="cls-1" d="M405.75,345.64h19.81v-83.19c0-1.59.59-2.43,1.59-2.43,1.18,0,1.76.84,1.76,2.43v83.19h19.9v-88.57c0-9.74-5.04-15.28-13.68-15.28-7.56,0-12.26,4.2-13.43,11.42h-.34v-.17c-.42-6.21-3.69-10.24-11.16-10.24h-4.45v102.84ZM378.94,328.43c-1.01,0-1.68-.84-1.68-2.52-.17-10.24-.17-21.41-.17-31.73l.17-31.73c0-1.59.67-2.43,1.68-2.43s1.68.84,1.68,2.43l.17,31.73c0,10.33,0,21.49-.17,31.73,0,1.68-.67,2.52-1.68,2.52ZM379.02,346.65c14.69,0,20.57-6.46,21.32-20.82.42-9.15.42-21.49.42-31.65s0-22.16-.42-31.56c-.76-15.11-6.63-20.82-21.32-20.82s-20.74,5.71-21.41,20.82c-.5,9.4-.5,21.49-.5,31.56s0,22.5.5,31.65c.67,14.36,6.55,20.82,21.41,20.82ZM329.54,327.68h-.92v-66.99h.92c1.59,0,2.6.92,2.6,2.52l.17,30.98c0,10.33,0,20.74-.17,31.06,0,1.59-1.01,2.43-2.6,2.43ZM308.81,345.64h21.74c14.69,0,20.57-6.3,21.32-20.4.42-8.98.42-21.07.42-31.06s0-21.74-.42-30.98c-.76-14.86-6.63-20.4-21.32-20.4h-21.74v102.84ZM281.07,327.68h-.92v-66.99h.92c1.59,0,2.6.92,2.6,2.52l.17,30.98c0,10.33,0,20.74-.17,31.06,0,1.59-1.01,2.43-2.6,2.43ZM260.33,345.64h21.74c14.69,0,20.57-6.3,21.32-20.4.42-8.98.42-21.07.42-31.06s0-21.74-.42-30.98c-.76-14.86-6.63-20.4-21.32-20.4h-21.74v102.84ZM235.37,282.34h-3.61l.08-19.9c0-1.59.76-2.43,1.76-2.43s1.59.84,1.59,2.43l.17,19.9ZM233.6,346.65c14.69,0,20.57-6.46,21.32-20.82.17-4.45.34-9.74.34-15.19h-19.9l-.17,15.28c0,1.68-.59,2.52-1.59,2.52s-1.76-.84-1.76-2.52c-.17-7.98-.17-16.37-.17-24.51h23.42c.34-13.35.34-27.54-.17-38.78-.76-15.11-6.63-20.82-21.32-20.82s-20.74,5.71-21.41,20.82c-.5,9.4-.5,21.49-.5,31.56s0,22.5.5,31.65c.67,14.36,6.55,20.82,21.41,20.82ZM185.72,275.54c-1.09,0-1.68-.84-1.68-2.52l-.08-7.64.08-7.05c0-1.43.59-2.35,1.68-2.35s1.68.92,1.68,2.35l.08,7.05-.08,7.64c0,1.68-.59,2.52-1.68,2.52ZM185.72,331.54c-1.09,0-1.68-.92-1.68-2.52l-.08-9.07.08-9.15c0-1.59.59-2.52,1.68-2.52s1.68.92,1.68,2.52l.08,9.15-.08,9.07c0,1.59-.59,2.52-1.68,2.52ZM185.55,346.65c12.59,0,20.4-6.04,21.49-16.45.25-3.11.42-7.05.42-10.24s-.17-7.22-.42-10.33c-1.09-10.58-9.65-16.03-20.65-16.62-2.18-.08-2.77-.67-2.77-1.85s1.01-1.76,2.77-1.93c11-.59,19.56-5.71,20.65-15.62.25-2.43.42-5.54.42-8.23s-.17-5.88-.42-8.48c-.34-3.27-1.68-6.38-3.95-8.48,3.19-1.34,5.21-4.11,5.62-7.81l.76-5.2h-17.21l-.5,6.97c-1.85-.42-3.95-.59-6.21-.59-12.42,0-20.15,5.54-21.16,15.11-.25,2.6-.42,5.88-.42,8.48s.17,5.79.42,8.23c.5,4.79,2.52,8.56,6.04,11.25-3.36,1.43-5.29,3.86-5.29,6.88,0,2.69,1.43,5.2,4.28,6.8-2.77,2.69-4.53,6.38-5.04,11.08-.25,3.11-.42,7.05-.42,10.33s.17,7.14.42,10.24c1.01,10.41,8.73,16.45,21.16,16.45ZM137.83,328.43c-1.17,0-1.68-.84-1.76-2.52-.08-2.18-.17-5.71-.17-10.24,0-3.95,0-8.23.17-11.75.17-2.1.5-2.85,2.6-4.11l.92-.5v26.61c0,1.51-.59,2.52-1.76,2.52ZM129.61,346.65c7.56,0,12.59-4.7,13.77-12.93h.42v.17c0,7.05,3.11,11.75,11.16,11.75h4.45v-79.92c0-16.79-6.3-23.93-21.41-23.93s-21.49,7.14-21.49,23.93v12.93h19.73v-16.2c0-1.59.59-2.43,1.76-2.43,1.01,0,1.59.84,1.59,2.43v18.05l-13.1,7.56c-6.13,3.53-9.07,9.07-9.82,16.62-.34,2.77-.59,8.48-.59,14.36s.25,12.17.59,14.86c.84,8.23,5.54,12.76,12.93,12.76ZM53.35,345.64h16.87l-.42-55.24h.5l.5,9.23,3.95,46.01h14.61l4.37-46.01.67-9.23h.5l-.42,55.24h16.87v-102.84h-22.92l-4.53,40.55-1.18,12h-.5l-1.18-12-5.12-40.55h-22.58v102.84Z"/>
  <path class="cls-1" d="M349.1,164.14h-3.61l.08-19.9c0-1.59.76-2.43,1.76-2.43s1.59.84,1.59,2.43l.17,19.9ZM347.34,228.45c14.69,0,20.57-6.46,21.32-20.82.17-4.45.34-9.74.34-15.19h-19.9l-.17,15.28c0,1.68-.59,2.52-1.59,2.52s-1.76-.84-1.76-2.52c-.17-7.98-.17-16.37-.17-24.51h23.42c.34-13.35.34-27.54-.17-38.78-.76-15.11-6.63-20.82-21.32-20.82s-20.74,5.71-21.41,20.82c-.5,9.4-.5,21.49-.5,31.56s0,22.5.5,31.65c.67,14.36,6.55,20.82,21.41,20.82ZM299.45,157.34c-1.09,0-1.68-.84-1.68-2.52l-.08-7.64.08-7.05c0-1.43.59-2.35,1.68-2.35s1.68.92,1.68,2.35l.08,7.05-.08,7.64c0,1.68-.59,2.52-1.68,2.52ZM299.45,213.34c-1.09,0-1.68-.92-1.68-2.52l-.08-9.07.08-9.15c0-1.59.59-2.52,1.68-2.52s1.68.92,1.68,2.52l.08,9.15-.08,9.07c0,1.59-.59,2.52-1.68,2.52ZM299.28,228.45c12.59,0,20.4-6.04,21.49-16.45.25-3.11.42-7.05.42-10.24s-.17-7.22-.42-10.33c-1.09-10.58-9.65-16.03-20.65-16.62-2.18-.08-2.77-.67-2.77-1.85s1.01-1.76,2.77-1.93c11-.59,19.56-5.71,20.65-15.62.25-2.43.42-5.54.42-8.23s-.17-5.88-.42-8.48c-.34-3.27-1.68-6.38-3.95-8.48,3.19-1.34,5.21-4.11,5.62-7.81l.76-5.2h-17.21l-.5,6.97c-1.85-.42-3.95-.59-6.21-.59-12.42,0-20.15,5.54-21.16,15.11-.25,2.6-.42,5.88-.42,8.48s.17,5.79.42,8.23c.5,4.79,2.52,8.56,6.04,11.25-3.36,1.43-5.29,3.86-5.29,6.88,0,2.69,1.43,5.2,4.28,6.8-2.77,2.69-4.53,6.38-5.04,11.08-.25,3.11-.42,7.05-.42,10.33s.17,7.14.42,10.24c1.01,10.41,8.73,16.45,21.16,16.45ZM250.89,209.48h-.92v-66.99h.92c1.59,0,2.6.92,2.6,2.52l.17,30.98c0,10.33,0,20.74-.17,31.06,0,1.59-1.01,2.43-2.6,2.43ZM230.16,227.44h21.74c14.69,0,20.57-6.3,21.32-20.4.42-8.98.42-21.07.42-31.06s0-21.74-.42-30.98c-.76-14.86-6.63-20.4-21.32-20.4h-21.74v102.84ZM204.85,121.24h20.23v-13.43h-20.23v13.43ZM205.02,227.44h19.81v-102.84h-19.81v102.84ZM171.4,227.44h19.81v-70.43c0-4.7,1.76-6.3,5.04-6.3,1.18,0,2.6.08,4.37.42v-26.86c-.67-.17-1.59-.25-2.52-.25-6.38,0-10.07,3.86-10.75,11h-.42v-.08c-.42-6.38-3.61-10.33-11.08-10.33h-4.45v102.84ZM133.34,227.44h19.81v-42.48h9.57v-18.22h-9.57v-23.93h13.94v-18.22h-33.75v102.84Z"/>
  <path class="cls-3" d="M398.96,177.27c-2.31,13.32-19.04,20.03-32.58,22.57-8.55-8.77-16.24-23.24-13.4-34.44,1.54-6.09,6.6-9.71,11.98-10.02,6.13-.35,10.93,3.29,13.22,9.66,4.9-2.66,10.98-3.21,15.93-.28,4.27,2.53,5.69,7.61,4.84,12.5Z"/>
  <path class="cls-2" d="M392.55,183.7c-5.8,6.59-13.96,10.11-22.22,11.93-3.67.81-7.26-5.04-9.91-9.3-3.33-5.34-4.67-10.62-4.27-17.01.32-5.12,3.67-9.82,8.94-10.1,10.19-.54,9.93,9.49,11.59,10.11.44.17,1.5-.21,2.14-.66,5.11-3.56,12.78-3.61,16.39,2.08,2.49,3.93.58,9.26-2.65,12.94Z"/>
  <path class="cls-2" d="M143.06,170.96c.21-.37.4-.72.58-1.04-1.87.33-3.85.76-5.8,1.18-1.91.42-3.89.85-5.8,1.19l-4.16.74,1.04-2.63v-.02c.11-.25.27-.7.48-1.3.21-.6.46-1.36.73-2.22.56-1.73,1.23-3.89,1.91-6.2,1.36-4.61,2.75-9.79,3.29-13.05v-.08c-.27.36-.59.8-.97,1.33-.14.23-.33.49-.57.83-.25.35-.56.77-.92,1.25-.85,1.16-2.01,2.73-3.25,4.53-1.41,2.05-2.91,4.23-4.23,6.18-1.32,1.95-2.47,3.66-3.16,4.74-3.11,4.9-6.74,10.69-10.07,16.54-.26.45-.41.8-.51,1.06,3.27-.39,6.72-.98,10.51-1.78l1.49-.32.38,1.48s.05.2.05.35c0,.24-.04.4-.11.65-.07.25-.17.59-.33,1.12-.32,1.05-.89,2.83-1.89,5.95-.96,2.99-2.09,6.52-3.09,9.71-.69,2.21-1.32,4.26-1.78,5.83.52-.63,1.14-1.41,1.85-2.32,1.46-1.86,3.28-4.23,5.2-6.76,3.84-5.07,8.11-10.82,10.89-14.63,1.16-1.59,1.86-2.55,2.21-3.02.12-.16.19-.26.24-.32h0c.74-.94,1.78-2.45,2.84-4.09,1.06-1.64,2.14-3.41,2.97-4.88Z"/>
  <path class="cls-3" d="M145.99,168.28h0s0,0,0,0h0s0,0,0,0c-.06-.09-.17-.23-.34-.33-.18-.11-.41-.18-.63-.18h-.14c-2.38.35-4.97.92-7.45,1.46-1.91.42-3.86.84-5.73,1.17l-.77.14c.11-.3.24-.67.38-1.11.89-2.63,2.41-7.51,3.73-12.29.66-2.39,1.26-4.74,1.71-6.78.22-1.02.41-1.96.54-2.79.13-.83.21-1.54.22-2.15v-.92s-.91-.05-.91-.05h-.22s-.08,0-.08,0h-.11l-.2.05-.1.02-.09.05c-.57.28-1.03.7-1.49,1.21-.45.52-.92,1.16-1.5,1.96l-.02.03-.02.03c-.1.16-.28.43-.52.76-.24.34-.55.75-.9,1.24-.85,1.16-2.03,2.75-3.28,4.58-1.41,2.05-2.91,4.23-4.24,6.19-1.33,1.95-2.48,3.67-3.2,4.8-3.12,4.91-6.76,10.72-10.12,16.62-.7,1.24-.91,2.01-.92,2.61,0,.32.08.6.19.79h0s0,0,0,0c.09.16.21.27.32.36.17.12.31.18.43.21l.27.05h.1s.1,0,.1,0c3.45-.38,7.07-.98,11.03-1.81-.24.81-.81,2.62-2.11,6.65-.96,2.99-2.09,6.53-3.09,9.72-1,3.2-1.87,6.04-2.3,7.67-.14.54-.19.93-.19,1.23,0,.18.02.32.05.44l.2.84.86-.1c.19-.02.32-.07.46-.13.39-.17.78-.43,1.16-.8h0s0,0,0,0c.31-.32.73-.81,1.27-1.46,1.88-2.29,5.17-6.57,8.6-11.13,3.43-4.56,7.01-9.38,9.45-12.72.77-1.06,1.34-1.84,1.74-2.38.2-.27.35-.48.47-.63.11-.15.19-.25.21-.28h0c1.07-1.37,2.6-3.65,4.01-5.93.71-1.14,1.38-2.27,1.95-3.28.57-1.01,1.04-1.89,1.33-2.56.06-.14.1-.31.1-.46,0-.27-.09-.48-.18-.61ZM137.25,179.93c-.05.07-.12.16-.24.32-.35.47-1.05,1.44-2.21,3.02-2.78,3.81-7.05,9.56-10.89,14.63-1.92,2.53-3.73,4.9-5.2,6.76-.71.9-1.34,1.69-1.85,2.32.46-1.57,1.09-3.62,1.78-5.83,1-3.19,2.13-6.72,3.09-9.71,1-3.12,1.57-4.9,1.89-5.95.16-.53.26-.87.33-1.12.06-.25.1-.41.11-.65,0-.16-.04-.32-.05-.35l-.38-1.48-1.49.32c-3.79.81-7.23,1.39-10.51,1.78.1-.26.26-.61.51-1.06,3.33-5.85,6.96-11.64,10.07-16.54.69-1.09,1.84-2.8,3.16-4.74,1.32-1.95,2.83-4.13,4.23-6.18,1.23-1.79,2.39-3.37,3.25-4.53.36-.48.66-.9.92-1.25.24-.33.42-.6.57-.83.38-.53.7-.97.98-1.33v.08c-.56,3.26-1.95,8.44-3.31,13.05-.68,2.31-1.35,4.47-1.91,6.2-.28.86-.53,1.62-.73,2.22-.21.6-.37,1.06-.47,1.3v.02s-1.05,2.63-1.05,2.63l4.16-.74c1.91-.34,3.89-.77,5.8-1.19,1.95-.43,3.93-.85,5.8-1.18-.17.32-.37.67-.58,1.04-.83,1.47-1.91,3.24-2.97,4.88-1.06,1.64-2.1,3.15-2.84,4.09h0Z"/>
  <path class="cls-1" d="M444.2,391.8c1.32-.19,2.29-.54,2.88-1.04.6-.5.9-1.17.9-2.01,0-.74-.15-1.29-.44-1.65-.29-.36-.64-.58-1.04-.68-.4-.1-.82-.15-1.24-.15h-4.31c-.55,0-.93-.12-1.14-.36-.21-.24-.31-.69-.31-1.33,0-.45,0-1.13.02-2.04.02-.9.02-1.97.02-3.2s.02-2.51.05-3.85c.03-1.34.05-2.67.05-3.97s0-2.51.02-3.61c.02-1.1.02-1.99.02-2.67,0-1.71-.19-2.96-.58-3.76-.39-.79-1.15-1.19-2.28-1.19-1,0-1.78.29-2.33.87-.55.58-.94,1.52-1.16,2.81-.23,2.26-.38,4.47-.46,6.62-.08,2.15-.12,4.08-.12,5.79,0,1.29.02,2.73.07,4.31.05,1.58.14,3.14.27,4.65.13,1.52.27,2.84.44,3.97.13.48.36.94.68,1.36.32.42.86.76,1.6,1.02.74.26,1.76.39,3.05.39,2.23,0,4.01-.1,5.33-.29ZM395.71,384.87c-1.21-.84-2.15-2.03-2.81-3.56-.66-1.53-.99-3.32-.99-5.36s.34-3.82,1.02-5.26c.68-1.44,1.62-2.54,2.84-3.3,1.21-.76,2.61-1.14,4.19-1.14s3,.38,4.24,1.14c1.24.76,2.22,1.86,2.93,3.3.71,1.44,1.07,3.19,1.07,5.26s-.35,3.82-1.04,5.36c-.7,1.54-1.66,2.72-2.88,3.56-1.23.84-2.67,1.26-4.31,1.26s-3.03-.42-4.24-1.26ZM407.54,390.2c2.28-1.32,4.1-3.21,5.45-5.65,1.36-2.44,2.04-5.34,2.04-8.7s-.68-6.2-2.04-8.53c-1.36-2.33-3.17-4.1-5.45-5.31-2.28-1.21-4.81-1.82-7.59-1.82s-5.29.61-7.54,1.84c-2.25,1.23-4.03,3-5.36,5.33-1.33,2.33-1.99,5.17-1.99,8.53s.66,6.26,1.99,8.7c1.32,2.44,3.12,4.31,5.38,5.62,2.26,1.31,4.77,1.96,7.51,1.96s5.31-.66,7.59-1.99ZM348.7,384.87c-1.21-.84-2.15-2.03-2.81-3.56-.66-1.53-.99-3.32-.99-5.36s.34-3.82,1.02-5.26c.68-1.44,1.62-2.54,2.84-3.3,1.21-.76,2.61-1.14,4.19-1.14s3,.38,4.24,1.14c1.24.76,2.22,1.86,2.93,3.3.71,1.44,1.07,3.19,1.07,5.26s-.35,3.82-1.04,5.36c-.7,1.54-1.66,2.72-2.88,3.56-1.23.84-2.67,1.26-4.31,1.26s-3.03-.42-4.24-1.26ZM360.52,390.2c2.28-1.32,4.1-3.21,5.45-5.65,1.36-2.44,2.04-5.34,2.04-8.7s-.68-6.2-2.04-8.53c-1.36-2.33-3.17-4.1-5.45-5.31-2.28-1.21-4.81-1.82-7.59-1.82s-5.29.61-7.54,1.84c-2.25,1.23-4.03,3-5.36,5.33-1.33,2.33-1.99,5.17-1.99,8.53s.66,6.26,1.99,8.7c1.32,2.44,3.12,4.31,5.38,5.62,2.26,1.31,4.77,1.96,7.51,1.96s5.31-.66,7.59-1.99ZM321.75,391.39c.56-.53.85-1.24.85-2.11s-.18-1.47-.53-1.89c-.36-.42-.85-.73-1.48-.94-.63-.21-1.33-.43-2.11-.65-.78-.23-1.59-.54-2.45-.95-.86-.4-1.71-1.03-2.54-1.87-1.74-1.81-2.62-4.14-2.62-6.98s.89-5.36,2.67-7.17c1.03-1.03,2.1-1.77,3.2-2.21s2.12-.78,3.08-1.02c.95-.24,1.72-.56,2.3-.94s.87-1.05.87-1.99c0-.81-.27-1.42-.82-1.84-.55-.42-1.49-.63-2.81-.63-1.58,0-3.25.32-4.99.97-1.74.65-3.38,1.62-4.92,2.93-1.54,1.31-2.78,2.96-3.73,4.97-.95,2-1.43,4.38-1.43,7.13s.47,5.07,1.41,7.08c.94,2,2.16,3.67,3.66,4.99s3.13,2.31,4.87,2.96,3.41.97,4.99.97c1.13,0,1.98-.27,2.55-.8ZM258.09,391.58c.48-.27.86-.73,1.14-1.38.27-.65.41-1.52.41-2.62,0-.71,0-1.66-.02-2.84-.02-1.18-.02-2.47-.02-3.88s-.02-2.83-.05-4.26c-.03-1.44-.05-2.8-.05-4.1s0-2.42-.02-3.37-.02-1.62-.02-2.01c0-.48.09-.82.27-.99.18-.18.48-.27.9-.27h3.25c.65,0,1.23-.18,1.74-.53.52-.36.78-1.03.78-2.04,0-.58-.12-1.07-.36-1.45s-.71-.69-1.41-.92c-.7-.23-1.71-.39-3.05-.48-1.34-.1-3.13-.15-5.36-.15s-3.97.05-5.31.15-2.36.26-3.05.48c-.7.23-1.16.53-1.38.92s-.34.87-.34,1.45c0,1,.26,1.68.78,2.04.52.36,1.1.53,1.74.53h3.2c.45,0,.75.09.9.27.15.18.22.51.22.99v2.01c0,.95,0,2.08-.02,3.37-.02,1.29-.03,2.66-.05,4.1-.02,1.44-.03,2.86-.05,4.26-.02,1.41-.02,2.7-.02,3.88v2.84c0,1.1.15,1.97.44,2.62.29.65.69,1.11,1.21,1.38.52.27,1.13.41,1.84.41s1.31-.14,1.79-.41ZM228.09,390.54c.26-.48.45-1.27.58-2.35.13-1.08.22-2.6.27-4.56.05-1.95.07-4.48.07-7.59s-.02-5.52-.07-7.44c-.05-1.92-.14-3.42-.27-4.48-.13-1.07-.31-1.81-.53-2.23-.52-1-1.39-1.5-2.62-1.5s-2.05.5-2.57,1.5c-.23.45-.4,1.21-.53,2.28-.13,1.07-.23,2.55-.29,4.46s-.1,4.38-.1,7.42.03,5.41.1,7.42c.06,2,.16,3.58.29,4.73.13,1.15.31,1.93.53,2.35.52.97,1.37,1.45,2.57,1.45,1.26,0,2.12-.48,2.57-1.45ZM173.66,390.71c.55-.86.82-1.91.82-3.17v-5.28c0-.9.09-1.62.27-2.16.18-.53.46-1.16.85-1.87,1.29-2.29,2.4-4.24,3.32-5.84.92-1.6,1.67-2.96,2.25-4.07.58-1.12,1.01-2.06,1.28-2.84.27-.78.41-1.47.41-2.08,0-.52-.08-1.01-.24-1.48-.16-.47-.44-.86-.85-1.16-.4-.31-.99-.46-1.77-.46s-1.41.23-2.01.7c-.6.47-1.19,1.23-1.77,2.28s-1.24,2.43-1.96,4.14c-.73,1.71-1.59,3.8-2.59,6.25-.13.32-.23.54-.31.65s-.2.17-.36.17l-.32-.17c-.08-.11-.2-.33-.36-.65-1-2.46-1.86-4.54-2.57-6.25-.71-1.71-1.35-3.09-1.91-4.14s-1.15-1.81-1.74-2.28c-.6-.47-1.27-.7-2.01-.7s-1.33.15-1.74.46c-.42.31-.72.7-.9,1.16-.18.47-.27.96-.27,1.48,0,.61.14,1.31.41,2.08.27.78.69,1.72,1.26,2.84.56,1.11,1.31,2.48,2.23,4.1.92,1.62,2.03,3.57,3.32,5.86.39.71.7,1.32.92,1.82s.34,1.24.34,2.21v5.23c0,1.26.28,2.32.85,3.17.56.86,1.41,1.28,2.54,1.28,1.2,0,2.07-.43,2.62-1.28ZM131.52,376.97c-.4,0-.83-.02-1.28-.05-.39-.03-.64-.11-.75-.24-.11-.13-.17-.35-.17-.68,0-.55.12-1.25.36-2.11.24-.86.48-1.7.7-2.54.42-1.42.75-2.47.99-3.15s.45-1.13.63-1.36c.18-.23.36-.34.56-.34.26,0,.48.11.66.31.18.21.39.66.65,1.36.26.7.6,1.75,1.02,3.18.29,1,.55,1.89.78,2.67.23.78.34,1.44.34,1.99,0,.32-.07.55-.19.68s-.39.21-.78.24c-.29.03-.63.05-1.02.05h-2.5ZM125.29,391.73c.39-.24.72-.61.99-1.12.27-.5.49-1.12.65-1.87.29-1.36.51-2.41.65-3.15.15-.74.28-1.32.41-1.72.13-.4.27-.77.44-1.09.13-.26.29-.45.49-.58.19-.13.57-.22,1.14-.27.56-.05,1.41-.07,2.54-.07,1.2,0,2.06.02,2.59.07.53.05.9.13,1.09.24.19.11.36.28.48.51.16.23.31.56.44.99.13.44.28,1.05.46,1.84.18.79.4,1.87.66,3.22.16.74.38,1.37.65,1.87.27.5.62.87,1.04,1.12.42.24.92.36,1.5.36.74,0,1.34-.12,1.79-.36.45-.24.79-.62,1.02-1.14.23-.52.34-1.15.34-1.89,0-1-.15-2.37-.44-4.1-.29-1.73-.68-3.64-1.16-5.72-.48-2.08-1.05-4.16-1.7-6.23-.71-2.39-1.37-4.39-1.99-5.99-.61-1.6-1.25-2.88-1.91-3.83-.66-.95-1.38-1.63-2.16-2.04s-1.66-.61-2.67-.61c-.94,0-1.79.19-2.57.56-.78.37-1.49,1.03-2.16,1.96-.66.94-1.33,2.21-2.01,3.83-.68,1.62-1.39,3.67-2.13,6.16-.61,2.04-1.16,4.08-1.62,6.13-.47,2.05-.84,3.93-1.12,5.65-.27,1.71-.41,3.1-.41,4.17,0,.78.11,1.41.34,1.91.23.5.57.88,1.04,1.14s1.07.39,1.82.39c.58,0,1.07-.12,1.45-.36ZM100.57,391.8c1.32-.19,2.29-.54,2.88-1.04.6-.5.9-1.17.9-2.01,0-.74-.15-1.29-.44-1.65-.29-.36-.64-.58-1.04-.68-.4-.1-.82-.15-1.24-.15h-4.31c-.55,0-.93-.12-1.14-.36-.21-.24-.31-.69-.31-1.33,0-.45,0-1.13.02-2.04.02-.9.02-1.97.02-3.2s.02-2.51.05-3.85c.03-1.34.05-2.67.05-3.97s0-2.51.02-3.61c.02-1.1.02-1.99.02-2.67,0-1.71-.19-2.96-.58-3.76-.39-.79-1.15-1.19-2.28-1.19-1,0-1.78.29-2.33.87-.55.58-.94,1.52-1.16,2.81-.23,2.26-.38,4.47-.46,6.62-.08,2.15-.12,4.08-.12,5.79,0,1.29.02,2.73.07,4.31.05,1.58.14,3.14.27,4.65.13,1.52.27,2.84.44,3.97.13.48.36.94.68,1.36.32.42.86.76,1.6,1.02.74.26,1.76.39,3.05.39,2.23,0,4.01-.1,5.33-.29ZM57.87,374.67c-.19-.15-.32-.48-.39-.99-.07-.52-.1-1.34-.1-2.47,0-1.32.02-2.36.05-3.1.03-.74.1-1.28.22-1.6.11-.32.27-.53.46-.61.19-.08.45-.12.78-.12,2.36,0,4.06.31,5.11.92,1.05.61,1.58,1.74,1.58,3.39s-.53,2.86-1.6,3.64-2.79,1.16-5.19,1.16c-.42,0-.73-.07-.92-.22ZM57.09,391.58c.39-.27.66-.65.82-1.14.16-.48.24-1,.24-1.55,0-1.23-.02-2.25-.05-3.08-.03-.82-.07-1.58-.1-2.28-.03-.69-.05-1.46-.05-2.3,0-.35.07-.66.22-.92.15-.26.39-.39.75-.39h1.45c2.39,0,4.43-.4,6.11-1.21,1.68-.81,2.96-1.95,3.85-3.44.89-1.49,1.33-3.26,1.33-5.33s-.45-3.91-1.36-5.33-2.26-2.5-4.07-3.22c-1.81-.73-4.07-1.09-6.79-1.09-1.87,0-3.35.1-4.43.29-1.08.19-1.86.53-2.33,1.02-.47.48-.78,1.16-.94,2.04-.26,2.17-.42,4.33-.49,6.5s-.1,4.15-.1,5.96.05,3.78.15,6.01.24,4.36.44,6.4c.19,1.29.6,2.2,1.21,2.71.61.52,1.44.78,2.47.78.71,0,1.26-.14,1.65-.41Z"/>
</svg>